<svg xmlns="http://www.w3.org/2000/svg" xmlns:xlink="http://www.w3.org/1999/xlink" width="37.198" height="32.056" viewBox="0 0 37.198 32.056">
  <defs>
    <clipPath id="clip-path">
      <rect id="Rectangle_405839" data-name="Rectangle 405839" width="37.198" height="32.056" fill="none"/>
    </clipPath>
  </defs>
  <g id="Group_1151366" data-name="Group 1151366" transform="translate(42.781 -4.128)">
    <g id="Group_1151281" data-name="Group 1151281" transform="translate(-42.781 4.128)">
      <g id="Group_1145577" data-name="Group 1145577" clip-path="url(#clip-path)">
        <path id="Path_979713" data-name="Path 979713" d="M20.481,3.268a12.7,12.7,0,0,1,3.024,4.4A19.113,19.113,0,0,0,25.63,7.7a12.2,12.2,0,0,1,9.886,18.329,5.981,5.981,0,0,0-.5.82l2.154,4.356a.654.654,0,0,1-.9.783l-4.259-2.129c-.451.248-.873.545-1.329.786a12.163,12.163,0,0,1-15.756-3.957A16.546,16.546,0,0,1,13.643,24.3a4.734,4.734,0,0,0-.909.06,12.374,12.374,0,0,1-7.486-2.164l-.153.023-4.211,2.1a.654.654,0,0,1-.863-.785l2.161-4.346a5.917,5.917,0,0,0-.546-.93A12.175,12.175,0,0,1,20.481,3.268m-.2,1.633a10.887,10.887,0,0,0-17.359,13c.191.311.691.87.689,1.208a1.354,1.354,0,0,1-.16.459c-.335.776-.807,1.546-1.17,2.315-.028.06-.17.343-.141.382l2.818-1.422c.491-.27.827.175,1.2.408A10.887,10.887,0,0,0,20.281,4.9M32.6,12.059a11,11,0,0,0-6.166-2.994,19.233,19.233,0,0,0-2.493-.082,12.184,12.184,0,0,1-2.154,10.683,12.438,12.438,0,0,1-5.478,3.971c-.446.159-.917.257-1.353.428a10.883,10.883,0,0,0,15.549,5.209,7.108,7.108,0,0,1,1.356-.815.642.642,0,0,1,.184.01l3.01,1.462a.231.231,0,0,0-.031-.143c-.362-.869-.944-1.73-1.312-2.6a1.249,1.249,0,0,1-.128-.414c0-.3.446-.78.613-1.052a10.891,10.891,0,0,0-1.6-13.665" transform="translate(0 0)"/>
        <path id="Path_979714" data-name="Path 979714" d="M198.668,135.277c-1.881-1.9,1.238-4.63,2.868-2.577a1.932,1.932,0,0,1-2.868,2.577m1.254-1.991a.643.643,0,0,0,.22,1.266.643.643,0,0,0-.22-1.266" transform="translate(-182.728 -121.738)"/>
        <path id="Path_979715" data-name="Path 979715" d="M132.974,135.5a1.934,1.934,0,0,1,2.282-3.114c2.155,1.387-.15,4.785-2.282,3.114m1.636-1.984a.642.642,0,0,0-.858.955.642.642,0,0,0,.858-.955" transform="translate(-121.988 -121.809)"/>
        <path id="Path_979716" data-name="Path 979716" d="M68.292,132.387a1.922,1.922,0,0,1,.414,3.821,1.922,1.922,0,0,1-.414-3.821m.114,1.275a.77.77,0,0,0-.417.243.639.639,0,1,0,.417-.243" transform="translate(-61.435 -122.114)"/>
        <path id="Path_979717" data-name="Path 979717" d="M300.752,234.567c-1.845,1.847-4.613-1.123-2.62-2.833a1.932,1.932,0,0,1,2.62,2.833m-.891-.929a.642.642,0,0,0-.936-.878.642.642,0,0,0,.936.878" transform="translate(-274.382 -213.322)"/>
        <path id="Path_979718" data-name="Path 979718" d="M366.881,231.7a1.932,1.932,0,0,1-2.54,2.907,1.932,1.932,0,1,1,2.54-2.907m-.811,1a.645.645,0,0,0-.994.819c.511.694,1.556-.191.994-.819" transform="translate(-335.44 -213.255)"/>
      </g>
    </g>
  </g>
</svg>
