<svg xmlns="http://www.w3.org/2000/svg" width="90" height="95.564" viewBox="0 0 90 95.564">
  <g id="Group_1157098" data-name="Group 1157098" transform="translate(-217 -370)">
    <g id="Group_1157040" data-name="Group 1157040" transform="translate(11.313 -5794.436)">
      <g id="Fondo" transform="translate(205.687 6170)" fill="#cbddf7">
        <path d="M 45 88.5 C 39.12687683105469 88.5 33.43022537231445 87.35007476806641 28.06830024719238 85.08217620849609 C 22.88852500915527 82.89131164550781 18.23629951477051 79.75458526611328 14.2408504486084 75.75914764404297 C 10.24541282653809 71.76370239257812 7.108687400817871 67.11147308349609 4.917825222015381 61.93170166015625 C 2.649924993515015 56.56977462768555 1.5 50.87312316894531 1.5 45 C 1.5 39.12687683105469 2.649924993515015 33.43022537231445 4.917825222015381 28.06830024719238 C 7.108687400817871 22.88852500915527 10.24541282653809 18.23629951477051 14.2408504486084 14.2408504486084 C 18.23629951477051 10.24541282653809 22.88852500915527 7.108687400817871 28.06830024719238 4.917825222015381 C 33.43022537231445 2.649924993515015 39.12687683105469 1.5 45 1.5 C 50.87312316894531 1.5 56.56977462768555 2.649924993515015 61.93170166015625 4.917825222015381 C 67.11147308349609 7.108687400817871 71.76370239257812 10.24541282653809 75.75914764404297 14.2408504486084 C 79.75458526611328 18.23629951477051 82.89131164550781 22.88852500915527 85.08217620849609 28.06830024719238 C 87.35007476806641 33.43022537231445 88.5 39.12687683105469 88.5 45 C 88.5 50.87312316894531 87.35007476806641 56.56977462768555 85.08217620849609 61.93170166015625 C 82.89131164550781 67.11147308349609 79.75458526611328 71.76370239257812 75.75914764404297 75.75914764404297 C 71.76370239257812 79.75458526611328 67.11147308349609 82.89131164550781 61.93170166015625 85.08217620849609 C 56.56977462768555 87.35007476806641 50.87312316894531 88.5 45 88.5 Z" stroke="none"/>
        <path d="M 45 3 C 39.32871246337891 3 33.82865524291992 4.110054016113281 28.65262985229492 6.299339294433594 C 23.65165710449219 8.414573669433594 19.15968322753906 11.44334411621094 15.301513671875 15.301513671875 C 11.44334411621094 19.15968322753906 8.414573669433594 23.65165710449219 6.299339294433594 28.65262985229492 C 4.110054016113281 33.82865524291992 3 39.32871246337891 3 45 C 3 50.67128753662109 4.110054016113281 56.17134475708008 6.299339294433594 61.34737396240234 C 8.414573669433594 66.34834289550781 11.44334411621094 70.84031677246094 15.301513671875 74.698486328125 C 19.15968322753906 78.55665588378906 23.65165710449219 81.58542633056641 28.65262985229492 83.70066070556641 C 33.82865524291992 85.88994598388672 39.32871246337891 87 45 87 C 50.67128753662109 87 56.17134475708008 85.88994598388672 61.34737396240234 83.70066070556641 C 66.34834289550781 81.58542633056641 70.84031677246094 78.55665588378906 74.698486328125 74.698486328125 C 78.55665588378906 70.84031677246094 81.58542633056641 66.34834289550781 83.70066070556641 61.34737396240234 C 85.88994598388672 56.17134475708008 87 50.67128753662109 87 45 C 87 39.32871246337891 85.88994598388672 33.82865524291992 83.70066070556641 28.65262985229492 C 81.58542633056641 23.65165710449219 78.55665588378906 19.15968322753906 74.698486328125 15.301513671875 C 70.84031677246094 11.44334411621094 66.34834289550781 8.414573669433594 61.34737396240234 6.299339294433594 C 56.17134475708008 4.110054016113281 50.67128753662109 3 45 3 M 45 0 C 69.85281372070312 0 90 20.14718627929688 90 45 C 90 69.85281372070312 69.85281372070312 90 45 90 C 20.14718627929688 90 0 69.85281372070312 0 45 C 0 20.14718627929688 20.14718627929688 0 45 0 Z" stroke="none" fill="#2f4f7e"/>
      </g>
      <g id="profesor_1_" data-name="profesor (1)" transform="translate(205.107 6164.436)">
        <path id="Path_904157" data-name="Path 904157" d="M54.982,16.491v6.717a4.175,4.175,0,0,0-2.817-1.084c-18.307,0-18.307-7.041-18.307-7.041,0,7.041-7.041,7.041-7.041,7.041A4.175,4.175,0,0,0,24,23.208V16.491a15.491,15.491,0,0,1,30.982,0Z" transform="translate(8.573 0.408)" fill="#555a66"/>
        <path id="Path_904158" data-name="Path 904158" d="M39.491,1A15.482,15.482,0,0,0,24,16.491v5.633a15.491,15.491,0,0,1,30.982,0V16.491A15.482,15.482,0,0,0,39.491,1Z" transform="translate(8.573 0.408)" fill="#414952"/>
        <path id="Path_904159" data-name="Path 904159" d="M38.225,60.225h1.408v5.633H36.817A2.825,2.825,0,0,1,34,63.041V56a4.225,4.225,0,0,0,4.225,4.225Z" transform="translate(12.656 22.862)" fill="#cfa388"/>
        <path id="Path_904160" data-name="Path 904160" d="M38.225,60.225A4.225,4.225,0,0,1,34,56v2.817a4.225,4.225,0,0,0,4.225,4.225h1.408V60.225Z" transform="translate(12.656 22.862)" fill="#b2876d"/>
        <path id="Path_904161" data-name="Path 904161" d="M39.633,47v8.45H38.225A4.225,4.225,0,0,0,34,59.674V49.817A2.825,2.825,0,0,1,36.817,47Z" transform="translate(12.656 19.188)" fill="#cfa388"/>
        <path id="Path_904162" data-name="Path 904162" d="M52.083,59v5.633H38V59H52.083Z" transform="translate(14.289 24.087)" fill="#966857"/>
        <path id="Path_904163" data-name="Path 904163" d="M52.083,59v2.817H38V59H52.083Z" transform="translate(14.289 24.087)" fill="#8d5c4d"/>
        <path id="Path_904164" data-name="Path 904164" d="M52.083,47v8.45H38V47Z" transform="translate(14.289 19.188)" fill="#966857"/>
        <path id="Path_904165" data-name="Path 904165" d="M37.858,37.225,33.633,41.45,28,35.817V34.408L33.633,33Z" transform="translate(10.206 13.472)" fill="#bec3d2"/>
        <path id="Path_904166" data-name="Path 904166" d="M44.858,34.507v1.31L39.225,41.45,35,37.225,39.225,33Z" transform="translate(13.064 13.472)" fill="#bec3d2"/>
        <path id="Path_904167" data-name="Path 904167" d="M40.45,40.225l-2.817,2.817H34.817L32,40.225,36.225,36Z" transform="translate(11.839 14.697)" fill="#4ab8f7"/>
        <path id="Path_904168" data-name="Path 904168" d="M38.041,41l1.943,8.45H38.041a2.825,2.825,0,0,0-2.817,2.817v9.858L31,59.307,35.225,41Z" transform="translate(11.431 16.738)" fill="#19cffc"/>
        <path id="Path_904169" data-name="Path 904169" d="M15.266,51a52.758,52.758,0,0,1-1.408,11.266S4,62.266,4,51a5.633,5.633,0,0,0,11.266,0Z" transform="translate(0.408 20.821)" fill="#bec3d2"/>
        <path id="Path_904170" data-name="Path 904170" d="M53,51h9.027c.084.549.169,1.113.239,1.69a8.4,8.4,0,0,1-2.31,6.985C59.224,53.817,53,53.817,53,53.817Z" transform="translate(20.413 20.821)" fill="#bec3d2"/>
        <path id="Path_904171" data-name="Path 904171" d="M48,59h7.041v5.633H48Z" transform="translate(18.371 24.087)" fill="#f2f6fc"/>
        <path id="Path_904172" data-name="Path 904172" d="M46.206,74.839H23.674V53.716L11,69.206A52.758,52.758,0,0,0,12.408,57.94l2.817-16.9,2.817-2.817L34.94,34v1.408l5.633,5.633,2.817,2.817L39.165,62.165l4.225,2.817v7.041A2.825,2.825,0,0,0,46.206,74.839Z" transform="translate(3.266 13.881)" fill="#dce1eb"/>
        <path id="Path_904173" data-name="Path 904173" d="M59.94,57.912v2.817H52.9v-8.45H37.943L36,43.829l2.817-2.817L44.45,35.38V34.07L59.94,38.2s6.661,4.76,9.027,19.716Z" transform="translate(13.472 13.909)" fill="#dce1eb"/>
        <path id="Path_904174" data-name="Path 904174" d="M16.225,26v9.858H12V26Z" transform="translate(3.674 10.615)" fill="#faa68e"/>
        <path id="Path_904175" data-name="Path 904175" d="M6,30h8.45v4.225H6Z" transform="translate(1.225 12.248)" fill="#ffcdbe"/>
        <path id="Path_904176" data-name="Path 904176" d="M17.266,37.225a4.137,4.137,0,0,0-4.225,4.225H8.817L6,38.633V33h7.041a4.137,4.137,0,0,0,4.225,4.225Z" transform="translate(1.225 13.472)" fill="#faa68e"/>
        <path id="Path_904177" data-name="Path 904177" d="M18.042,33v5.633L15.225,41.45H11a4.137,4.137,0,0,1,4.225-4.225A4.137,4.137,0,0,1,11,33Z" transform="translate(3.266 13.472)" fill="#ffbeaa"/>
        <path id="Path_904178" data-name="Path 904178" d="M18.083,39,15.266,55.9A5.633,5.633,0,0,1,4,55.9L9.633,39Z" transform="translate(0.408 15.922)" fill="#ffcdbe"/>
        <path id="Path_904179" data-name="Path 904179" d="M12.45,60.124a5.633,5.633,0,0,1-5.633-5.633L11.981,39H9.633L4,55.9a5.616,5.616,0,0,0,9.447,4.125,5.684,5.684,0,0,1-1,.1Z" transform="translate(0.408 15.922)" fill="#ffbeaa"/>
        <path id="Path_904180" data-name="Path 904180" d="M60.757,53s6.224,0,6.957,5.858a8.35,8.35,0,0,1-6.07,2.591H38.225a4.225,4.225,0,1,1,0-8.45Z" transform="translate(12.656 21.637)" fill="#ffcdbe"/>
        <path id="Path_904181" data-name="Path 904181" d="M61.64,57.817H38.221A4.173,4.173,0,0,1,34.256,55a4.212,4.212,0,0,0,3.966,5.633H61.64a8.35,8.35,0,0,0,6.07-2.591,6.877,6.877,0,0,0-.651-2.208,8.337,8.337,0,0,1-5.419,1.983Z" transform="translate(12.659 22.454)" fill="#ffbeaa"/>
        <g id="Group_1143324" data-name="Group 1143324" transform="translate(31.165 22.532)">
          <path id="Path_904182" data-name="Path 904182" d="M40.45,30.48v3.549l-4.225,4.225L32,34.029V30.48a12.553,12.553,0,0,0,8.45,0Z" transform="translate(-19.326 -10.088)" fill="#faa68e"/>
          <path id="Path_904183" data-name="Path 904183" d="M24.408,17.084A4.175,4.175,0,0,1,27.225,16v8.45A4.225,4.225,0,0,1,23,20.225,4.14,4.14,0,0,1,24.408,17.084Z" transform="translate(-23 -16)" fill="#faa68e"/>
          <path id="Path_904184" data-name="Path 904184" d="M44,16a4.225,4.225,0,1,1,0,8.45Z" transform="translate(-14.427 -16)" fill="#faa68e"/>
        </g>
        <path id="Path_904185" data-name="Path 904185" d="M51.349,18.041v8.45a12.674,12.674,0,0,1-25.349,0v-8.45s7.041,0,7.041-7.041C33.041,11,33.041,18.041,51.349,18.041Z" transform="translate(9.39 4.491)" fill="#ffcdbe"/>
        <path id="Path_904186" data-name="Path 904186" d="M33.041,11c0,7.041-7.041,7.041-7.041,7.041v2.817s7.041,0,7.041-7.041c0,0,0,7.041,18.307,7.041V18.041C33.041,18.041,33.041,11,33.041,11Z" transform="translate(9.39 4.491)" fill="#ffbeaa"/>
        <path id="Path_904187" data-name="Path 904187" d="M39.083,40.982A14.1,14.1,0,0,1,25,26.9V18.45a1.408,1.408,0,0,1,1.408-1.408,5.422,5.422,0,0,0,5.633-5.633,1.408,1.408,0,0,1,2.817,0c0,.011.579,5.633,16.9,5.633a1.408,1.408,0,0,1,1.408,1.408V26.9A14.1,14.1,0,0,1,39.083,40.982ZM27.817,19.738V26.9a11.266,11.266,0,0,0,22.532,0V19.844c-9.554-.194-14.125-2.371-16.312-4.475A8.2,8.2,0,0,1,27.817,19.738Z" transform="translate(8.982 4.083)"/>
        <path id="Path_904188" data-name="Path 904188" d="M44,26.266V23.45a2.817,2.817,0,0,0,0-5.633V15a5.633,5.633,0,1,1,0,11.266Z" transform="translate(16.738 6.124)"/>
        <path id="Path_904189" data-name="Path 904189" d="M27.633,26.266a5.633,5.633,0,1,1,0-11.266v2.817a2.817,2.817,0,1,0,0,5.633Z" transform="translate(7.757 6.124)"/>
        <path id="Path_904190" data-name="Path 904190" d="M56.8,23.94H53.982V16.9a14.083,14.083,0,0,0-28.165,0V23.94H23V16.9a16.9,16.9,0,1,1,33.8,0Z" transform="translate(8.165)"/>
        <path id="Path_904191" data-name="Path 904191" d="M36.633,28.633A5.633,5.633,0,0,1,31,23h2.817a2.817,2.817,0,1,0,5.633,0h2.817A5.633,5.633,0,0,1,36.633,28.633Z" transform="translate(11.431 9.39)"/>
        <path id="Path_904192" data-name="Path 904192" d="M31,18h2.817v2.817H31Z" transform="translate(11.431 7.349)"/>
        <path id="Path_904193" data-name="Path 904193" d="M37,18h2.817v2.817H37Z" transform="translate(13.881 7.349)"/>
        <path id="Path_904194" data-name="Path 904194" d="M36.633,39.858a1.408,1.408,0,0,1-1-.412L31.413,35.22a1.408,1.408,0,0,1-.413-1V30h2.817v3.642l2.817,2.817,2.817-2.817V30h2.817v4.225a1.408,1.408,0,0,1-.412,1l-4.225,4.225A1.408,1.408,0,0,1,36.633,39.858Z" transform="translate(11.431 12.248)"/>
        <path id="Path_904195" data-name="Path 904195" d="M62.056,71.417H38.633a5.633,5.633,0,1,1,0-11.266H59.757V51.7h2.817v9.858a1.408,1.408,0,0,1-1.408,1.408H38.633a2.817,2.817,0,1,0,0,5.633H62.056a7.023,7.023,0,0,0,5.28-2.394,7.1,7.1,0,0,0,1.7-5.6c-1.818-13.954-7.451-19.382-8.524-20.3L39.672,34.755l.727-2.721,21.124,5.633a1.408,1.408,0,0,1,.455.214c.313.224,7.671,5.654,9.848,22.364a9.878,9.878,0,0,1-9.769,11.172Z" transform="translate(12.248 13.078)"/>
        <path id="Path_904196" data-name="Path 904196" d="M54.124,71.349h-16.9A4.225,4.225,0,0,1,33,67.124v-16.9A4.225,4.225,0,0,1,37.225,46h16.9a1.408,1.408,0,0,1,1.408,1.408v8.45H52.716V48.817H37.225a1.408,1.408,0,0,0-1.408,1.408v16.9a1.408,1.408,0,0,0,1.408,1.408H52.716V64.307h2.817V69.94A1.408,1.408,0,0,1,54.124,71.349Z" transform="translate(12.248 18.78)"/>
        <path id="Path_904197" data-name="Path 904197" d="M37,47h2.817v8.45H37Z" transform="translate(13.881 19.188)"/>
        <path id="Path_904198" data-name="Path 904198" d="M37,59h2.817v5.633H37Z" transform="translate(13.881 24.087)"/>
        <path id="Path_904199" data-name="Path 904199" d="M55.041,66.041H48V63.225h5.633V59H56.45v5.633A1.408,1.408,0,0,1,55.041,66.041Z" transform="translate(18.371 24.087)"/>
        <path id="Path_904200" data-name="Path 904200" d="M10.041,63.349A7.05,7.05,0,0,1,3,56.307a1.408,1.408,0,0,1,.072-.445L8.7,38.963A1.408,1.408,0,0,1,10.041,38h8.45a1.408,1.408,0,0,1,1.389,1.641l-2.8,16.789a7.048,7.048,0,0,1-7.041,6.919ZM5.817,56.52a4.226,4.226,0,1,0,8.45-.213,1.294,1.294,0,0,1,.02-.232l2.542-15.258H11.054Z" transform="translate(0 15.514)"/>
        <path id="Path_904201" data-name="Path 904201" d="M16.63,42.853l-1.991-1.991,2.4-2.4v-.825a1.408,1.408,0,0,1-1.408,1.408,2.65,2.65,0,0,0-2.817,2.817H10A5.339,5.339,0,0,1,11.79,37.64,5.951,5.951,0,0,1,10,33.408,1.408,1.408,0,0,1,11.41,32h7.041a1.408,1.408,0,0,1,1.408,1.408v5.633a1.408,1.408,0,0,1-.412,1Zm-3.5-8.037a2.517,2.517,0,0,0,2.5,1.408,1.408,1.408,0,0,1,1.408,1.408V34.817Z" transform="translate(2.856 13.064)"/>
        <path id="Path_904202" data-name="Path 904202" d="M18.041,36.266H15.225v-8.45H13.817v8.45H11V26.408A1.408,1.408,0,0,1,12.408,25h4.225a1.408,1.408,0,0,1,1.408,1.408Z" transform="translate(3.266 10.206)"/>
        <path id="Path_904203" data-name="Path 904203" d="M13.45,36.041H6.408A1.408,1.408,0,0,1,5,34.633V30.408A1.408,1.408,0,0,1,6.408,29h8.45v2.817H7.817v1.408H13.45Z" transform="translate(0.817 11.839)"/>
        <path id="Path_904204" data-name="Path 904204" d="M8.229,42.445,5.413,39.629a1.408,1.408,0,0,1-.413-1V33H7.817v5.05l2.4,2.4Z" transform="translate(0.817 13.472)"/>
        <path id="Path_904205" data-name="Path 904205" d="M58.56,59.442C58,54.991,53.5,54.817,53,54.817V52a8.193,8.193,0,0,1,8.354,7.092Z" transform="translate(20.413 21.228)"/>
        <path id="Path_904206" data-name="Path 904206" d="M53,50h9.858v2.817H53Z" transform="translate(20.413 20.413)"/>
        <path id="Path_904207" data-name="Path 904207" d="M0,0H23.225V2.817H0Z" transform="translate(20.981 50.728) rotate(-14.064)"/>
        <path id="Path_904208" data-name="Path 904208" d="M49.472,70.94H26.94a1.408,1.408,0,0,1-1.408-1.408V52.351L15.356,64.789a1.408,1.408,0,0,1-1.09.518C14.153,65.307,3,65.166,3,52.633H5.817c0,8.212,5.84,9.583,7.82,9.813L25.85,47.518a1.408,1.408,0,0,1,2.5.89V68.123H49.472Z" transform="translate(0 19.188)"/>
        <path id="Path_904209" data-name="Path 904209" d="M12.762,62.608l-2.732-.684A51.8,51.8,0,0,0,11.4,51h2.817a53.733,53.733,0,0,1-1.45,11.608Z" transform="translate(2.87 20.821)"/>
        <path id="Path_904210" data-name="Path 904210" d="M42.491,42.45a1.408,1.408,0,0,1-1-.412l-3.229-3.229-3.229,3.229a1.408,1.408,0,0,1-1.991,0L27.413,36.4a1.408,1.408,0,0,1-.413-1V34h2.817v.825l4.225,4.225,3.229-3.229a1.408,1.408,0,0,1,1.991,0l3.229,3.229,4.225-4.225V34h2.817v1.408a1.408,1.408,0,0,1-.412,1l-5.633,5.633A1.408,1.408,0,0,1,42.491,42.45Z" transform="translate(9.798 13.881)"/>
        <path id="Path_904211" data-name="Path 904211" d="M37.922,43.513H35.105a1.408,1.408,0,0,1-1-.412l-2.817-2.817,1.991-1.991,2.4,2.4h1.65l2.4-2.4,1.991,1.991L38.917,43.1a1.408,1.408,0,0,1-1,.413Z" transform="translate(11.551 15.633)"/>
        <path id="Path_904212" data-name="Path 904212" d="M34.852,63.387l-4.225-2.817a1.408,1.408,0,0,1-.591-1.489L34.26,40.775l2.746.634L33,58.767l3.415,2.277Z" transform="translate(11.023 16.647)"/>
        <path id="Path_904213" data-name="Path 904213" d="M0,0H2.817V8.671H0Z" transform="translate(48.115 58.087) rotate(-12.939)"/>
        <path id="Path_904214" data-name="Path 904214" d="M13,17h2.817v8.45H13Z" transform="translate(4.083 6.94)"/>
        <path id="Path_904215" data-name="Path 904215" d="M0,0H7.966V2.817H0Z" transform="translate(20.307 31.393) rotate(-45)"/>
        <path id="Path_904216" data-name="Path 904216" d="M0,0H2.817V7.966H0Z" transform="translate(9.042 27.752) rotate(-45)"/>
      </g>
    </g>
  </g>
</svg>
