<svg xmlns="http://www.w3.org/2000/svg" xmlns:xlink="http://www.w3.org/1999/xlink" width="108" height="108" viewBox="0 0 108 108">
  <defs>
    <filter id="Fondo" x="0" y="0" width="108" height="108" filterUnits="userSpaceOnUse">
      <feOffset dy="3" input="SourceAlpha"/>
      <feGaussianBlur stdDeviation="3" result="blur"/>
      <feFlood flood-opacity="0.161"/>
      <feComposite operator="in" in2="blur"/>
      <feComposite in="SourceGraphic"/>
    </filter>
    <clipPath id="clip-path">
      <rect id="Rectangle_405916" data-name="Rectangle 405916" width="54" height="54" transform="translate(0 -0.001)" fill="none"/>
    </clipPath>
  </defs>
  <g id="Group_1151349" data-name="Group 1151349" transform="translate(-40 -1478)">
    <g id="Icono" transform="translate(49.012 789)">
      <g transform="matrix(1, 0, 0, 1, -9.01, 689)" filter="url(#Fondo)">
        <g id="Fondo-2" data-name="Fondo" transform="translate(9 6)" fill="#fbe9b9" stroke="#f2b71b" stroke-width="3">
          <circle cx="45" cy="45" r="45" stroke="none"/>
          <circle cx="45" cy="45" r="43.5" fill="none"/>
        </g>
      </g>
      <g id="Group_1151306" data-name="Group 1151306" transform="translate(22.988 714.001)">
        <g id="Group_1151305" data-name="Group 1151305" clip-path="url(#clip-path)">
          <path id="Path_990284" data-name="Path 990284" d="M39.287,17.869a1.117,1.117,0,0,1-.861-.55L38.341,2.57c-.258-1.011-1.172-.769-1.979-.79-7.337-.189-14.7.141-22.044,0v8.932l-.15.9a3.786,3.786,0,0,1-3.455,2.709H1.78V51.04c0,.231.68.8.988.684,11.187-.224,22.412.283,33.594-.005.807-.021,1.721.221,1.979-.789l.085-14.75a1.06,1.06,0,0,1,.861-.55,1,1,0,0,1,.838.886l0,14.629A2.728,2.728,0,0,1,37.672,53.5L2.009,53.423A2.753,2.753,0,0,1,0,51.044V14.052a2.732,2.732,0,0,1,.577-1.617L12.434.576A2.733,2.733,0,0,1,14.052,0L37.773,0a2.747,2.747,0,0,1,2.351,2.351l0,14.629a1.009,1.009,0,0,1-.838.886M3.139,12.437h8.1a2.591,2.591,0,0,0,1.2-1.2v-8.1Z" fill="#010101"/>
          <path id="Path_990285" data-name="Path 990285" d="M59.461,90.983c-.943.654-1.877,1.335-2.821,1.985C53.4,95.2,50.176,97.51,46.9,99.677a7.983,7.983,0,0,1-1.559.949c-3.055,1.032-6.732,1.411-9.853,2.37H26.189a.9.9,0,0,1,.108-1.768l7.15-.006a1.793,1.793,0,0,1,.374-1.141c1.518-2.8,4.092-5.579,5.738-8.366,5.748-3.942,11.449-7.955,17.186-11.91.946-.652,1.877-1.335,2.821-1.985,2.3-1.583,4.634-3.126,6.929-4.72a3.863,3.863,0,0,1,3.554.245c.915.621,3.4,4.221,3.575,5.306a3.625,3.625,0,0,1-1.47,3.555q-6.36,4.368-12.691,8.778m8.045-16.3a.95.95,0,0,0-.41.161l-4.4,3.031c.958,1.468,1.933,2.936,2.951,4.363.236.331.615.718.817,1.012.15.219-.067.6.517.361,1.245-1.02,2.843-1.815,4.071-2.825a1.766,1.766,0,0,0,.617-2.375,23.276,23.276,0,0,0-2.6-3.563,1.63,1.63,0,0,0-1.56-.164M60.193,79.7c-.151.1-1.1.582-1.137.639l0,.229c1.261,1.7,2.361,3.511,3.64,5.191.1.134.213.558.455.514.249-.318,2.086-1.291,2.039-1.592l-3.9-5.616c-.321-.254-.869.481-1.1.635m-3.656,2.507c-5.072,3.335-9.99,6.911-15,10.342l0,.31c1.234,1.624,2.3,3.375,3.5,5.019.168.23.278.661.623.47L61.545,87.422l-3.963-5.9c-.179-.105-.886.58-1.046.685M39.3,95.266c-.423.6-.865,1.2-1.255,1.826l2.051,2.958c.7-.19,1.424-.327,2.13-.5a8.189,8.189,0,0,1,1.463-.314l-3.5-5.221c-.134,0-.762,1.072-.888,1.252m-2.351,3.45-1.673,2.5a20.3,20.3,0,0,0,2.872-.781Z" transform="translate(-20.174 -57.547)" fill="#030202"/>
          <path id="Path_990286" data-name="Path 990286" d="M176.666,24.554a10.945,10.945,0,0,0,.1,2.4c-.943.65-1.875,1.333-2.821,1.985l0-19.593-.213-.884c.806.021,1.721-.221,1.979.789L175.805,24a1.116,1.116,0,0,0,.861.55" transform="translate(-137.379 -6.684)" fill="#ccd5d7"/>
          <path id="Path_990287" data-name="Path 990287" d="M176.666,161.954a1.059,1.059,0,0,0-.861.55l-.085,14.75c-.258,1.011-1.173.769-1.979.789l.213-.884c-.056-4.946.059-9.9,0-14.841,0-.177.067-.465-.106-.573.943-.65,1.878-1.331,2.821-1.985Z" transform="translate(-137.379 -126.324)" fill="#cfd7da"/>
          <path id="Path_990288" data-name="Path 990288" d="M43.089,8.281l.213.884,0,19.593c-5.737,3.956-11.438,7.969-17.186,11.91-1.646,2.786-4.22,5.564-5.738,8.366A1.792,1.792,0,0,0,20,50.175l-7.15.006a.9.9,0,0,0-.108,1.768h9.295c3.122-.959,6.8-1.338,9.853-2.37a7.983,7.983,0,0,0,1.559-.949c3.281-2.167,6.506-4.478,9.745-6.71.173.108.1.4.106.573.061,4.945-.053,9.895,0,14.841l-.213.884c-11.182.288-22.407-.22-33.594.005-.308.116-.988-.453-.988-.684V20.818h8.933A3.786,3.786,0,0,0,20.9,18.109l.15-.9V8.281c7.339.141,14.707-.189,22.044,0M34.074,11.02a.9.9,0,0,0,.193,1.748c2.267-.189,5,.272,7.205.009A.913.913,0,0,0,41.781,11Zm2.716,3.552A.891.891,0,0,0,36.9,16.3a30.055,30.055,0,0,0,4.67.018.9.9,0,0,0,.193-1.747ZM12.657,24.392c-1.033.5-.624,1.781.5,1.758H40.429c1.232.041,1.53-1.531.311-1.782Zm.211,4.39c-1.315.357-.925,1.885.389,1.86H33.847c1.153.048,1.726-1.17.649-1.805Zm-.107,4.49a.889.889,0,0,0,.184,1.756h14.84a.913.913,0,0,0,.337-1.7Zm-.105,8.044a.907.907,0,0,0,.193,1.749c2.151-.165,4.68.242,6.785.006a.893.893,0,0,0,.2-1.77Zm.212,4.391a.922.922,0,0,0,0,1.831,23.47,23.47,0,0,0,3.834.018.935.935,0,0,0,.087-1.85,23.725,23.725,0,0,0-3.921,0m27.713,8.02H36.873a3.128,3.128,0,0,0-.519.317.975.975,0,0,0,.332,1.438l5.252-.033.426-.619-.027-5A.975.975,0,0,0,40.9,49.5a3.136,3.136,0,0,0-.317.519Z" transform="translate(-6.727 -6.501)" fill="#f3f3f3"/>
          <path id="Path_990289" data-name="Path 990289" d="M15,24.3,24.3,15v8.1a2.591,2.591,0,0,1-1.2,1.2Z" transform="translate(-11.858 -11.858)" fill="#cdd6d9"/>
          <path id="Path_990290" data-name="Path 990290" d="M105.585,133.5c-1.2-1.644-2.268-3.395-3.5-5.019l0-.31c5.008-3.431,9.926-7.007,15-10.342l3.507,5.433Z" transform="translate(-80.715 -93.169)" fill="#f24234"/>
          <path id="Path_990291" data-name="Path 990291" d="M207.975,81.888c.746,1.359,2.706,3.139,2.614,4.75-.116,2.019-2.407,2.62-3.659,3.817-.2-.293-.58-.681-.817-1.012-1.018-1.427-1.993-2.895-2.951-4.363l4.4-3.031a.951.951,0,0,1,.41-.161" transform="translate(-160.643 -64.75)" fill="#e71e62"/>
          <path id="Path_990292" data-name="Path 990292" d="M130.321,115.2c.16-.105.868-.79,1.046-.685l3.963,5.9L119.452,131.34c-.345.19-.455-.241-.623-.47l15-10.238Z" transform="translate(-93.96 -90.538)" fill="#c51e1d"/>
          <path id="Path_990293" data-name="Path 990293" d="M222.209,81.429a1.631,1.631,0,0,1,1.56.164,23.291,23.291,0,0,1,2.6,3.563,1.766,1.766,0,0,1-.617,2.375c-1.227,1.01-2.826,1.8-4.071,2.825-.584.239-.367-.142-.517-.361,1.251-1.2,3.543-1.8,3.659-3.817.092-1.611-1.868-3.391-2.614-4.75" transform="translate(-174.877 -64.291)" fill="#aa1456"/>
          <path id="Path_990294" data-name="Path 990294" d="M193.719,109.311c.249-.175,1.117-.522,1.029-.864l-3.537-5.2c.232-.154.78-.889,1.1-.634l3.9,5.616c.048.3-1.789,1.274-2.039,1.591-.242.044-.353-.38-.455-.514" transform="translate(-151.194 -81.098)" fill="#f9be09"/>
          <path id="Path_990295" data-name="Path 990295" d="M89.557,184.51c-.706.174-1.427.311-2.13.5l-2.05-2.958c.39-.628.833-1.222,1.255-1.826.224,0,.285.13.4.278.676.856,1.479,2.1,2.087,3.032.2.3.492.586.437.974" transform="translate(-67.508 -142.507)" fill="#fbddae"/>
          <path id="Path_990296" data-name="Path 990296" d="M186.917,105.848l3.537,5.2c.087.342-.78.689-1.029.864-1.279-1.681-2.379-3.5-3.64-5.192l0-.229c.033-.056.986-.539,1.137-.639" transform="translate(-146.898 -83.695)" fill="#fbd800"/>
          <path id="Path_990297" data-name="Path 990297" d="M91.374,175.5c.126-.18.754-1.256.888-1.252l3.5,5.221a8.193,8.193,0,0,0-1.463.314c.055-.387-.241-.673-.437-.973-.608-.933-1.41-2.177-2.087-3.032-.116-.147-.178-.281-.4-.278" transform="translate(-72.251 -137.779)" fill="#dac099"/>
          <path id="Path_990298" data-name="Path 990298" d="M73.822,196.71l1.2,1.722a20.294,20.294,0,0,1-2.872.781Z" transform="translate(-57.049 -155.541)" fill="#50585d"/>
          <path id="Path_990299" data-name="Path 990299" d="M26.088,85.4l28.083-.024c1.219.252.92,1.824-.311,1.782H26.584c-1.12.023-1.529-1.255-.5-1.758" transform="translate(-20.158 -67.505)" fill="#040404"/>
          <path id="Path_990300" data-name="Path 990300" d="M26.272,106.466l21.627.054c1.077.635.5,1.854-.649,1.805H26.66c-1.314.024-1.7-1.5-.389-1.86" transform="translate(-20.131 -84.184)" fill="#050505"/>
          <path id="Path_990301" data-name="Path 990301" d="M26.2,127.918l15.362.057a.914.914,0,0,1-.337,1.7H26.39a.889.889,0,0,1-.185-1.756" transform="translate(-20.171 -101.146)" fill="#010101"/>
          <path id="Path_990302" data-name="Path 990302" d="M145.072,208.965v-3.709a3.135,3.135,0,0,1,.317-.519.974.974,0,0,1,1.438.332l.027,5-.426.619-5.252.033a.975.975,0,0,1-.332-1.438,3.128,3.128,0,0,1,.519-.317Z" transform="translate(-111.218 -161.739)" fill="#040404"/>
          <path id="Path_990303" data-name="Path 990303" d="M128.374,21.517l7.707-.02a.913.913,0,0,1-.309,1.776c-2.21.264-4.939-.2-7.205-.008a.9.9,0,0,1-.193-1.748" transform="translate(-101.027 -16.998)" fill="#040404"/>
          <path id="Path_990304" data-name="Path 990304" d="M26.1,166.294l7.181-.016a.893.893,0,0,1-.2,1.77c-2.1.236-4.634-.171-6.785-.006a.906.906,0,0,1-.193-1.748" transform="translate(-20.173 -131.478)" fill="#030303"/>
          <path id="Path_990305" data-name="Path 990305" d="M141.271,38.564h4.971a.9.9,0,0,1-.193,1.747,30.058,30.058,0,0,1-4.67-.018.891.891,0,0,1-.107-1.729" transform="translate(-111.208 -30.493)" fill="#030303"/>
          <path id="Path_990306" data-name="Path 990306" d="M26.267,187.026a23.725,23.725,0,0,1,3.921,0,.935.935,0,0,1-.087,1.85,23.471,23.471,0,0,1-3.834-.018.922.922,0,0,1,0-1.831" transform="translate(-20.126 -147.819)" fill="#0b0b0b"/>
        </g>
      </g>
    </g>
  </g>
</svg>
