<svg xmlns="http://www.w3.org/2000/svg" xmlns:xlink="http://www.w3.org/1999/xlink" width="108" height="108" viewBox="0 0 108 108">
  <defs>
    <filter id="Path_978624" x="0" y="0" width="108" height="108" filterUnits="userSpaceOnUse">
      <feOffset dy="3" input="SourceAlpha"/>
      <feGaussianBlur stdDeviation="3" result="blur"/>
      <feFlood flood-opacity="0.161"/>
      <feComposite operator="in" in2="blur"/>
      <feComposite in="SourceGraphic"/>
    </filter>
    <clipPath id="clip-path">
      <rect id="Rectangle_405840" data-name="Rectangle 405840" width="52.601" height="52.943" fill="none"/>
    </clipPath>
  </defs>
  <g id="Group_1151372" data-name="Group 1151372" transform="translate(-220.5 -3519.091)">
    <g id="Group_1151328" data-name="Group 1151328">
      <g id="Group_1151256" data-name="Group 1151256" transform="translate(18.5 562.091)">
        <g transform="matrix(1, 0, 0, 1, 202, 2957)" filter="url(#Path_978624)">
          <g id="Path_978624-2" data-name="Path 978624" transform="translate(9 6)" fill="#fbe9b9">
            <path d="M 45 88.5 C 39.12687683105469 88.5 33.43022537231445 87.35007476806641 28.06830024719238 85.08217620849609 C 22.88852500915527 82.89131164550781 18.23629951477051 79.75458526611328 14.2408504486084 75.75914764404297 C 10.24541282653809 71.76370239257812 7.108687400817871 67.11147308349609 4.917825222015381 61.93170166015625 C 2.649924993515015 56.56977462768555 1.5 50.87312316894531 1.5 45 C 1.5 39.12687683105469 2.649924993515015 33.43022537231445 4.917825222015381 28.06830024719238 C 7.108687400817871 22.88852500915527 10.24541282653809 18.23629951477051 14.2408504486084 14.2408504486084 C 18.23629951477051 10.24541282653809 22.88852500915527 7.108687400817871 28.06830024719238 4.917825222015381 C 33.43022537231445 2.649924993515015 39.12687683105469 1.5 45 1.5 C 50.87312316894531 1.5 56.56977462768555 2.649924993515015 61.93170166015625 4.917825222015381 C 67.11147308349609 7.108687400817871 71.76370239257812 10.24541282653809 75.75914764404297 14.2408504486084 C 79.75458526611328 18.23629951477051 82.89131164550781 22.88852500915527 85.08217620849609 28.06830024719238 C 87.35007476806641 33.43022537231445 88.5 39.12687683105469 88.5 45 C 88.5 50.87312316894531 87.35007476806641 56.56977462768555 85.08217620849609 61.93170166015625 C 82.89131164550781 67.11147308349609 79.75458526611328 71.76370239257812 75.75914764404297 75.75914764404297 C 71.76370239257812 79.75458526611328 67.11147308349609 82.89131164550781 61.93170166015625 85.08217620849609 C 56.56977462768555 87.35007476806641 50.87312316894531 88.5 45 88.5 Z" stroke="none"/>
            <path d="M 45 3 C 39.32871246337891 3 33.82865524291992 4.110054016113281 28.65262985229492 6.299339294433594 C 23.65165710449219 8.414573669433594 19.15968322753906 11.44334411621094 15.301513671875 15.301513671875 C 11.44334411621094 19.15968322753906 8.414573669433594 23.65165710449219 6.299339294433594 28.65262985229492 C 4.110054016113281 33.82865524291992 3 39.32871246337891 3 45 C 3 50.67128753662109 4.110054016113281 56.17134475708008 6.299339294433594 61.34737396240234 C 8.414573669433594 66.34834289550781 11.44334411621094 70.84031677246094 15.301513671875 74.698486328125 C 19.15968322753906 78.55665588378906 23.65165710449219 81.58542633056641 28.65262985229492 83.70066070556641 C 33.82865524291992 85.88994598388672 39.32871246337891 87 45 87 C 50.67128753662109 87 56.17134475708008 85.88994598388672 61.34737396240234 83.70066070556641 C 66.34834289550781 81.58542633056641 70.84031677246094 78.55665588378906 74.698486328125 74.698486328125 C 78.55665588378906 70.84031677246094 81.58542633056641 66.34834289550781 83.70066070556641 61.34737396240234 C 85.88994598388672 56.17134475708008 87 50.67128753662109 87 45 C 87 39.32871246337891 85.88994598388672 33.82865524291992 83.70066070556641 28.65262985229492 C 81.58542633056641 23.65165710449219 78.55665588378906 19.15968322753906 74.698486328125 15.301513671875 C 70.84031677246094 11.44334411621094 66.34834289550781 8.414573669433594 61.34737396240234 6.299339294433594 C 56.17134475708008 4.110054016113281 50.67128753662109 3 45 3 M 45 0 C 69.85281372070312 0 90 20.14718627929688 90 45 C 90 69.85281372070312 69.85281372070312 90 45 90 C 20.14718627929688 90 0 69.85281372070312 0 45 C 0 20.14718627929688 20.14718627929688 0 45 0 Z" stroke="none" fill="#bcac89"/>
          </g>
        </g>
      </g>
      <g id="Group_1151297" data-name="Group 1151297" transform="translate(249.5 3541.25)">
        <g id="Group_1145579" data-name="Group 1145579" clip-path="url(#clip-path)">
          <path id="Path_979719" data-name="Path 979719" d="M2.379,43.231c-1.7-.974,2.557-3.515,3.774-3.515h5.428V37.338c0-.133-2-.953-2.369-1.2A12.928,12.928,0,0,1,4.16,29.509c-.114-.319-.306-1.468-.385-1.579-.064-.09-1.621-.553-2.049-.846C-1.261,25.04-.093,21.037,3.1,20.014c-1.952-4.242-4.564-12.2,2.24-13.368.372-.064.99.082,1.277-.067.092-.048.691-1.133.892-1.383C13.227-1.9,22.46,5.6,29.193,1.032c.545-.37,1.114-1.454,1.924-.854.482.357,1.2,3.459,1.317,4.162.723,4.492,0,8.528-3.564,11.568l-.008,4.047a4.487,4.487,0,0,1,3.468,3.017l2.206,0a2.8,2.8,0,0,1,1.656-3.152c.956-.3,6.758-.281,7.65.1a2.417,2.417,0,0,1,1.3,1.5c.1.349.1,1.5.151,1.555.236.24,5.921-.218,6.727.046a.791.791,0,0,1,.5.632,32.417,32.417,0,0,1,.009,4.441c-.071.485-.31.8-.829.774-.225-.013-.724-.31-.724-.465V24.673l-.155-.155H45.289c-.145,0,.182,1.815-.719,2.744-1.036,1.069-5.833.907-7.4.776-2.147-.18-2.743-1.509-2.632-3.52H28.849V41.68c.772-.369,2.384-3.174,3.311-2.122.97,1.1-2.031,2.687-1.959,3.192.041.285,3.216,3.014,3.611,3.633,1.335,2.091-1.671,3.583-2.689,5.015H50.976V30.98c0-.191.6-.561.724-.569.358-.022.912.443.834.872l0,20.792a.807.807,0,0,1-.6.851l-50.223.016c-.442-.045-.626-.478-.681-.87a46.1,46.1,0,0,1,0-6.414c.067-.449.46-.925.933-.877a1.984,1.984,0,0,1,.62.465V51.3H6.773l1.706-1.756c-.538-.1-2.287-.329-2.459-.9L6.2,41.371a3.542,3.542,0,0,0-1.542.576c-.716.429-1.447,1.763-2.283,1.284m11.374-39.7A6.718,6.718,0,0,0,8.9,5.963c-.6.743-1.01,2.415-1.909,2.43-1.03.016-1.3-.423-2.568.124C1.3,9.863,2.793,14.811,3.646,17.2a26,26,0,0,0,1.127,2.647c.484.287,1.956-.773,2.3-1.133.805-.846,1.739-3.659,2.035-3.859.494-.333,2.255.651,2.888.873,4.344,1.521,8.554,2.063,12.978.415C31.232,13.814,32.1,8.161,30.295,2.29c-2.614,1.807-5.642,1.982-8.74,1.865-2.517-.1-5.31-.752-7.8-.624M9.72,17.591a7.86,7.86,0,0,1-3.134,3.432c-.3.14-1.362.344-1.41.4A42.013,42.013,0,0,0,5.3,27.434,10.939,10.939,0,0,0,13.235,36.2a10.849,10.849,0,0,0,9.812-1.923c5.652-4.46,4.013-10.969,4.249-17.306a20.058,20.058,0,0,1-14.554.751c-.436-.133-2.525-1.062-2.665-1.035-.209.04-.335.707-.358.9m28.538,8.891c1.606.057,3.2-.1,4.805-.106a.914.914,0,0,0,.473-.354,23.892,23.892,0,0,0,.1-3.936.962.962,0,0,0-.357-.677,37.421,37.421,0,0,0-5.022-.1c-.6,0-1.525-.37-1.989.338a14.228,14.228,0,0,0-.188,3.751c.164,1.357,1.143,1.044,2.177,1.08M3.619,21.623a2.289,2.289,0,0,0,0,4.549ZM30.5,22.967c.071-.5-1.328-1.41-1.6-1.346l-.053,1.346ZM27.3,40.026V31.755a14.752,14.752,0,0,1-4.725,4.735c-.253.154-1.789.8-1.789.9v2.326c2.166.1,4.4-.254,6.514.31m-8.169-1.344c0-.113.314-.693-.059-.813-.078-.025-1.267.276-1.546.293a14.579,14.579,0,0,1-4.288-.307V40.13a14.373,14.373,0,0,0,1.758.93c.312.159.97.63,1.267.6l2.8-1.522a5.143,5.143,0,0,0,.066-1.458M9.306,41.267H7.859l-.3,6.508c3.475.617,4.429.952,1.441,3.624h3.1ZM12.1,45.505A12.319,12.319,0,0,0,14.78,42.78c-.06-.2-3.278-2.044-3.819-1.513Zm9.3-4.238c-1.492-.268-2.545.937-3.825,1.449l2.637,2.789Zm-.722,8.58,4.009-4-.178-4.533-1.467.015Zm6.6-8.152-1.121-.325.1,2.894c.216-.2.943-.773,1.01-1a8.914,8.914,0,0,0,.007-1.565m-11.05,5.463,1.351-1.906-1.4-1.4L14.7,45.262l1.322,1.832Zm10.549,1.759a19.645,19.645,0,0,0,2.275,2.226c.4-.6,3.41-3.143,3.5-3.541.1-.436-1.679-1.947-2.053-2.3-1.058-1.01-.983-1.855-2.329-.726-.981.822-1.877,1.986-2.832,2.861-.03.211,1.222,1.259,1.439,1.484M13.547,50.468l1.555-2.01-1.608-2.019c-1.561.946-.072,2.642.053,4.029m5.235-4.023-1.512,1.9,1.5,2.016a14.554,14.554,0,0,0,.888-2.945c-.021-.254-.678-1-.873-.973m6.654,3.507c-.267-.253-1.041-1.3-1.374-1.229l-2.554,2.523c-.044.239.106.135.256.153a23.469,23.469,0,0,0,2.535,0c.86,0,1.724,0,2.585,0a12.577,12.577,0,0,0-1.448-1.446M17.475,51.4l-1.291-1.654L14.993,51.4Z" transform="translate(0 0)" fill="#020202"/>
          <path id="Path_979720" data-name="Path 979720" d="M162.155,124.284c-.124.008-.724.378-.724.569v20.419H141.579c1.017-1.432,4.024-2.924,2.689-5.015-.4-.619-3.57-3.348-3.611-3.633-.072-.506,2.929-2.091,1.959-3.192-.927-1.052-2.539,1.753-3.311,2.122V118.391h5.687c-.111,2.011.484,3.34,2.632,3.52,1.569.132,6.367.293,7.4-.776.9-.93.574-2.744.719-2.744h5.532l.155.155v3.722c0,.155.5.452.724.465Zm-4.27,2.451a.8.8,0,0,0-.43-1.319H143.486c-1.094.283-.784,1.611.312,1.56,4.252-.338,9.175.436,13.347,0a1.383,1.383,0,0,0,.74-.243m0,4.549a.79.79,0,0,0-.537-1.315H143.593a.777.777,0,0,0,0,1.554c4.317-.339,9.316.444,13.552,0a1.384,1.384,0,0,0,.74-.243m0,3.472a1.384,1.384,0,0,0-.74-.243c-4.236-.44-9.235.343-13.552,0a.777.777,0,0,0,0,1.555h13.756a.79.79,0,0,0,.537-1.315m-2.071,4.553a1.312,1.312,0,0,0-.737-.247,65.273,65.273,0,0,0-9.31.006c-1.239.164-1.24,1.486.1,1.653a64.3,64.3,0,0,0,9.2,0c.748-.1,1.384-.807.742-1.413" transform="translate(-110.455 -93.873)" fill="#e3e3e3"/>
          <path id="Path_979721" data-name="Path 979721" d="M9.9,201.627c.836.479,1.567-.855,2.283-1.284a3.544,3.544,0,0,1,1.542-.576l-.184,7.266c.173.574,1.921.8,2.459.9L14.3,209.691H10.11v-6.048a1.985,1.985,0,0,0-.62-.465Z" transform="translate(-7.525 -158.395)" fill="#505e73"/>
          <path id="Path_979722" data-name="Path 979722" d="M46.318,81.477c.023-.2.149-.865.358-.9.14-.027,2.229.9,2.665,1.035a20.058,20.058,0,0,0,14.554-.751c-.237,6.338,1.4,12.846-4.249,17.306a10.848,10.848,0,0,1-9.812,1.923,14.658,14.658,0,0,1-3.519-9.146,71.642,71.642,0,0,1,0-9.464m2.863,4.89c-1.365-1.569-2.1,2.671-.822,2.947,1.428.309,1.245-2.462.822-2.947m7.657-.22c-.929.18-.769,2.9-.177,3.132,1.6.628,1.62-3.412.177-3.132M49.349,93.09c-1.243,1.213,2.177,2.494,3.123,2.547,1.091.061,4.754-.893,3.882-2.434-.551-.973-1.622.358-2.209.6a3.45,3.45,0,0,1-2.552.029c-.7-.257-1.556-1.409-2.243-.739" transform="translate(-36.597 -63.885)" fill="#f7c0ae"/>
          <path id="Path_979723" data-name="Path 979723" d="M54.173,12.3c2.493-.128,5.286.529,7.8.624,3.1.117,6.125-.058,8.74-1.865,1.8,5.871.937,11.524-5.322,13.855-4.424,1.648-8.634,1.106-12.978-.415a9.577,9.577,0,0,1,.328-10.58c.425-.6.988-1.05,1.43-1.62" transform="translate(-40.42 -8.769)" fill="#505e74"/>
          <path id="Path_979724" data-name="Path 979724" d="M23.439,17.049c-.442.57-1.005,1.022-1.43,1.62a9.577,9.577,0,0,0-.328,10.58c-.634-.222-2.394-1.206-2.888-.873-.3.2-1.23,3.013-2.035,3.859-.343.36-1.815,1.42-2.3,1.133a25.975,25.975,0,0,1-1.127-2.646c-.853-2.392-2.35-7.34.772-8.686,1.27-.547,1.539-.108,2.568-.124.9-.014,1.308-1.687,1.909-2.43a6.717,6.717,0,0,1,4.857-2.432" transform="translate(-9.686 -13.518)" fill="#3a475a"/>
          <path id="Path_979725" data-name="Path 979725" d="M32.755,103.553a10.939,10.939,0,0,1-7.931-8.767,42.012,42.012,0,0,1-.129-6.012c.048-.055,1.11-.259,1.41-.4a7.859,7.859,0,0,0,3.134-3.432,71.678,71.678,0,0,0,0,9.464,14.658,14.658,0,0,0,3.519,9.146" transform="translate(-19.519 -67.352)" fill="#e89d8e"/>
          <path id="Path_979726" data-name="Path 979726" d="M183.946,107.956c.042-.253-.207-.705-.207-.879v-3.515c0-.142.214-.565.207-.775a37.387,37.387,0,0,1,5.022.1.963.963,0,0,1,.357.677,23.913,23.913,0,0,1-.1,3.936.916.916,0,0,1-.473.354c-1.6.008-3.2.163-4.805.106" transform="translate(-145.687 -81.473)" fill="#f8c1ae"/>
          <path id="Path_979727" data-name="Path 979727" d="M38.233,199.265,41.025,209.4h-3.1c2.987-2.672,2.034-3.007-1.441-3.624l.3-6.508Z" transform="translate(-28.927 -157.998)" fill="#4f5d72"/>
          <path id="Path_979728" data-name="Path 979728" d="M133.04,218.735c.374.357,2.152,1.868,2.053,2.3-.09.4-3.1,2.937-3.5,3.541a19.627,19.627,0,0,1-2.275-2.227Z" transform="translate(-102.537 -173.436)" fill="#f7c0ad"/>
          <path id="Path_979729" data-name="Path 979729" d="M99.866,208.019l2.364-8.521,1.467-.015.178,4.533Z" transform="translate(-79.184 -158.171)" fill="#4f5d72"/>
          <path id="Path_979730" data-name="Path 979730" d="M127.528,213.9l-3.722,3.619c-.217-.226-1.469-1.273-1.439-1.484.956-.875,1.852-2.038,2.832-2.861,1.346-1.128,1.272-.283,2.329.727" transform="translate(-97.024 -168.596)" fill="#eeab99"/>
          <path id="Path_979731" data-name="Path 979731" d="M176.257,102.543c.007.211-.207.633-.207.775v3.515c0,.174.249.625.207.879-1.034-.037-2.013.276-2.177-1.08a14.222,14.222,0,0,1,.188-3.751c.463-.708,1.385-.34,1.988-.338" transform="translate(-137.998 -81.229)" fill="#e4a494"/>
          <path id="Path_979732" data-name="Path 979732" d="M76.534,186.785a5.143,5.143,0,0,1-.066,1.458l-2.8,1.522c-.3.029-.956-.443-1.267-.6v-2.068Z" transform="translate(-57.404 -148.103)" fill="#f6c0ad"/>
          <path id="Path_979733" data-name="Path 979733" d="M54.068,203.139,52.93,198.9c.541-.531,3.759,1.31,3.819,1.512a12.321,12.321,0,0,1-2.681,2.726" transform="translate(-41.968 -157.634)" fill="#eaeaea"/>
          <path id="Path_979734" data-name="Path 979734" d="M88.71,199.121l-1.188,4.238-2.637-2.789c1.28-.512,2.333-1.717,3.825-1.449" transform="translate(-67.306 -157.854)" fill="#ededed"/>
          <path id="Path_979735" data-name="Path 979735" d="M69.806,183.618l-4.137.31V186a14.362,14.362,0,0,1-1.758-.93v-2.275a14.579,14.579,0,0,0,4.288.308c.279-.017,1.468-.318,1.546-.293.373.12.062.7.059.813" transform="translate(-50.676 -144.936)" fill="#e49a8c"/>
          <path id="Path_979736" data-name="Path 979736" d="M9.692,104.413v4.549a2.289,2.289,0,0,1,0-4.549" transform="translate(-6.073 -82.789)" fill="#df9688"/>
          <path id="Path_979737" data-name="Path 979737" d="M107.757,236.482l-1.137,1.447a23.475,23.475,0,0,1-2.535,0c-.15-.018-.3.086-.256-.153l2.554-2.523c.333-.069,1.107.977,1.374,1.229" transform="translate(-82.32 -186.53)" fill="#384557"/>
          <path id="Path_979738" data-name="Path 979738" d="M72.5,215.042l-.214-.065-1.322-1.832,1.487-1.414,1.4,1.4Z" transform="translate(-56.265 -167.883)" fill="#f24664"/>
          <path id="Path_979739" data-name="Path 979739" d="M84.908,224.264c.2-.027.852.718.873.973a14.557,14.557,0,0,1-.888,2.945l-1.5-2.016Z" transform="translate(-66.125 -177.819)" fill="#ececec"/>
          <path id="Path_979740" data-name="Path 979740" d="M62.5,228.269c-.125-1.387-1.614-3.083-.053-4.029l1.608,2.019Z" transform="translate(-48.956 -177.801)" fill="#ececec"/>
          <path id="Path_979741" data-name="Path 979741" d="M127.446,200.091a8.914,8.914,0,0,1-.007,1.565c-.068.231-.795.8-1.01,1l-.1-2.895Z" transform="translate(-100.164 -158.395)" fill="#4e5b70"/>
          <path id="Path_979742" data-name="Path 979742" d="M74.881,241.856H72.4l1.19-1.654Z" transform="translate(-57.406 -190.457)" fill="#e84360"/>
          <path id="Path_979743" data-name="Path 979743" d="M118.472,241.2a12.562,12.562,0,0,1,1.448,1.446c-.86.005-1.725,0-2.585,0Z" transform="translate(-93.035 -191.248)" fill="#505e74"/>
          <path id="Path_979744" data-name="Path 979744" d="M140.957,105.738H139.3l.053-1.346c.273-.065,1.672.85,1.6,1.346" transform="translate(-110.454 -82.771)" fill="#e49a8c"/>
          <path id="Path_979745" data-name="Path 979745" d="M171.288,153.632a1.383,1.383,0,0,1-.74.242c-4.173.434-9.1-.34-13.348,0-1.1.051-1.406-1.277-.312-1.56h13.969a.8.8,0,0,1,.43,1.319" transform="translate(-123.857 -120.77)" fill="#030303"/>
          <path id="Path_979746" data-name="Path 979746" d="M171.341,175.611a1.383,1.383,0,0,1-.74.243c-4.237.44-9.235-.343-13.553,0a.777.777,0,0,1,0-1.554H170.8a.789.789,0,0,1,.537,1.315" transform="translate(-123.911 -138.199)" fill="#010101"/>
          <path id="Path_979747" data-name="Path 979747" d="M171.341,195.956a.789.789,0,0,1-.537,1.315H157.049a.777.777,0,0,1,0-1.554c4.317.339,9.316-.444,13.553,0a1.383,1.383,0,0,1,.74.243" transform="translate(-123.911 -155.073)" fill="#010101"/>
          <path id="Path_979748" data-name="Path 979748" d="M177.047,217.83c.641.606.005,1.314-.742,1.413a64.3,64.3,0,0,1-9.2,0c-1.343-.167-1.342-1.489-.1-1.653a65.271,65.271,0,0,1,9.31-.006,1.312,1.312,0,0,1,.737.247" transform="translate(-131.687 -172.393)" fill="#0b0b0b"/>
          <path id="Path_979749" data-name="Path 979749" d="M60.547,140.111c.687-.67,1.544.482,2.243.739a3.45,3.45,0,0,0,2.552-.029c.587-.238,1.658-1.57,2.209-.6.872,1.541-2.79,2.495-3.882,2.434-.946-.053-4.366-1.335-3.123-2.547" transform="translate(-47.794 -110.906)" fill="#050403"/>
          <path id="Path_979750" data-name="Path 979750" d="M55.077,107.226c.422.485.605,3.256-.823,2.947-1.278-.276-.543-4.517.823-2.947" transform="translate(-42.493 -84.744)" fill="#0a0707"/>
          <path id="Path_979751" data-name="Path 979751" d="M95.212,107.442c1.443-.28,1.421,3.759-.177,3.132-.592-.233-.751-2.951.177-3.132" transform="translate(-74.971 -85.18)" fill="#050403"/>
        </g>
      </g>
    </g>
  </g>
</svg>
