<svg xmlns="http://www.w3.org/2000/svg" xmlns:xlink="http://www.w3.org/1999/xlink" width="108" height="108" viewBox="0 0 108 108">
  <defs>
    <filter id="Path_978624" x="0" y="0" width="108" height="108" filterUnits="userSpaceOnUse">
      <feOffset dy="3" input="SourceAlpha"/>
      <feGaussianBlur stdDeviation="3" result="blur"/>
      <feFlood flood-opacity="0.161"/>
      <feComposite operator="in" in2="blur"/>
      <feComposite in="SourceGraphic"/>
    </filter>
    <clipPath id="clip-path">
      <rect id="Rectangle_405911" data-name="Rectangle 405911" width="51.854" height="51.673" fill="none"/>
    </clipPath>
  </defs>
  <g id="Group_1157123" data-name="Group 1157123" transform="translate(-728 -3116)">
    <g id="Group_1151620" data-name="Group 1151620" transform="translate(527 2796)">
      <g transform="matrix(1, 0, 0, 1, 201, 320)" filter="url(#Path_978624)">
        <g id="Path_978624-2" data-name="Path 978624" transform="translate(9 6)" fill="#fbe9b9">
          <path d="M 45 88.5 C 39.12687683105469 88.5 33.43022537231445 87.35007476806641 28.06830024719238 85.08217620849609 C 22.88852500915527 82.89131164550781 18.23629951477051 79.75458526611328 14.2408504486084 75.75914764404297 C 10.24541282653809 71.76370239257812 7.108687400817871 67.11147308349609 4.917825222015381 61.93170166015625 C 2.649924993515015 56.56977462768555 1.5 50.87312316894531 1.5 45 C 1.5 39.12687683105469 2.649924993515015 33.43022537231445 4.917825222015381 28.06830024719238 C 7.108687400817871 22.88852500915527 10.24541282653809 18.23629951477051 14.2408504486084 14.2408504486084 C 18.23629951477051 10.24541282653809 22.88852500915527 7.108687400817871 28.06830024719238 4.917825222015381 C 33.43022537231445 2.649924993515015 39.12687683105469 1.5 45 1.5 C 50.87312316894531 1.5 56.56977462768555 2.649924993515015 61.93170166015625 4.917825222015381 C 67.11147308349609 7.108687400817871 71.76370239257812 10.24541282653809 75.75914764404297 14.2408504486084 C 79.75458526611328 18.23629951477051 82.89131164550781 22.88852500915527 85.08217620849609 28.06830024719238 C 87.35007476806641 33.43022537231445 88.5 39.12687683105469 88.5 45 C 88.5 50.87312316894531 87.35007476806641 56.56977462768555 85.08217620849609 61.93170166015625 C 82.89131164550781 67.11147308349609 79.75458526611328 71.76370239257812 75.75914764404297 75.75914764404297 C 71.76370239257812 79.75458526611328 67.11147308349609 82.89131164550781 61.93170166015625 85.08217620849609 C 56.56977462768555 87.35007476806641 50.87312316894531 88.5 45 88.5 Z" stroke="none"/>
          <path d="M 45 3 C 39.32871246337891 3 33.82865524291992 4.110054016113281 28.65262985229492 6.299339294433594 C 23.65165710449219 8.414573669433594 19.15968322753906 11.44334411621094 15.301513671875 15.301513671875 C 11.44334411621094 19.15968322753906 8.414573669433594 23.65165710449219 6.299339294433594 28.65262985229492 C 4.110054016113281 33.82865524291992 3 39.32871246337891 3 45 C 3 50.67128753662109 4.110054016113281 56.17134475708008 6.299339294433594 61.34737396240234 C 8.414573669433594 66.34834289550781 11.44334411621094 70.84031677246094 15.301513671875 74.698486328125 C 19.15968322753906 78.55665588378906 23.65165710449219 81.58542633056641 28.65262985229492 83.70066070556641 C 33.82865524291992 85.88994598388672 39.32871246337891 87 45 87 C 50.67128753662109 87 56.17134475708008 85.88994598388672 61.34737396240234 83.70066070556641 C 66.34834289550781 81.58542633056641 70.84031677246094 78.55665588378906 74.698486328125 74.698486328125 C 78.55665588378906 70.84031677246094 81.58542633056641 66.34834289550781 83.70066070556641 61.34737396240234 C 85.88994598388672 56.17134475708008 87 50.67128753662109 87 45 C 87 39.32871246337891 85.88994598388672 33.82865524291992 83.70066070556641 28.65262985229492 C 81.58542633056641 23.65165710449219 78.55665588378906 19.15968322753906 74.698486328125 15.301513671875 C 70.84031677246094 11.44334411621094 66.34834289550781 8.414573669433594 61.34737396240234 6.299339294433594 C 56.17134475708008 4.110054016113281 50.67128753662109 3 45 3 M 45 0 C 69.85281372070312 0 90 20.14718627929688 90 45 C 90 69.85281372070312 69.85281372070312 90 45 90 C 20.14718627929688 90 0 69.85281372070312 0 45 C 0 20.14718627929688 20.14718627929688 0 45 0 Z" stroke="none" fill="#f2b71b"/>
        </g>
      </g>
      <g id="Group_1151299" data-name="Group 1151299" transform="translate(229.073 345.163)">
        <g id="Group_1151299-2" data-name="Group 1151299" clip-path="url(#clip-path)">
          <path id="Path_990233" data-name="Path 990233" d="M18.425,0V11.512a5.552,5.552,0,0,0,2.6,1.718,5.857,5.857,0,1,1,9.794,0l1.007-.4c1.768-1.29,3.278-2.907,4.931-4.341V0h15V15H38.9l-6.254,5.414a3.214,3.214,0,0,0-.883,1.514V35.838h1.771A2.58,2.58,0,0,1,35.668,32.5c1.19-.129,2.586.1,3.8,0,.445-2.295.732-5.132,3.026-6.352.034-.145-.021-.171-.1-.261-.282-.321-.826-.642-1.151-1.037a5,5,0,1,1,7.9-.229c-.128.174-.929.883-.816,1.006a5.529,5.529,0,0,1,3.129,3.384c.488,1.484.436,5.527.313,7.2A6.658,6.658,0,0,1,50.1,40c1.852.045,1.823,2.1,1.667,3.491-.065.583-.7,1.51-1.3,1.51H48.432v5H50.1v1.667H1.755V50.006H3.422v-5H1.39c-.605,0-1.237-.927-1.3-1.51C-.068,42.1-.1,40.049,1.755,40a6.657,6.657,0,0,1-1.671-3.8c-.123-1.669-.175-5.712.313-7.2a5.529,5.529,0,0,1,3.129-3.384c.113-.124-.688-.832-.816-1.006a5.011,5.011,0,0,1,5.844-7.614,5.052,5.052,0,0,1,.808,8.987c2.2,1.526,2.6,4.037,3.025,6.506,1.213.106,2.609-.125,3.8,0a2.591,2.591,0,0,1,2.135,3.334h1.771V21.93a3.216,3.216,0,0,0-.883-1.514L12.956,15H.088V0ZM16.758,1.667h-15V13.335h9.273C9.38,11.431,5.782,10.06,6.99,6.953a3.3,3.3,0,0,1,5.5-.86L16.758,10Zm33.341,0H38.43V6.876c.406-.1.672-.564.993-.831,3.721-3.09,7.763,1.416,4.427,4.635-.94.907-2.135,1.675-3.023,2.655H50.1Zm-24.716,4.2c-5.547.643-4.294,9.449,1.507,8.175,4.967-1.091,3.806-8.791-1.507-8.175M30.095,29.17V21.722c0-1.045,1.216-2.3,1.925-2.972,3.531-3.356,7.584-6.34,11.1-9.739,1.054-1.437-.721-3.085-2.283-1.97-3,2.139-6.492,7.072-9.989,8.035-.987.272-2.015.277-3,.547l.578,7.138-2.535,2.547-2.46-2.547.578-7.138c-1.013-.275-2.069-.279-3.081-.57-3.253-.937-7.042-5.822-9.85-7.966C9.52,5.9,7.675,7.513,8.736,9.011c3.52,3.392,7.568,6.382,11.1,9.739.778.739,1.925,1.914,1.925,3.076V29.17ZM26.24,15.835h-.626l-.521,6.2.8.88.872-.88ZM6.21,18.363c-4.143.6-3.446,7.158,1,6.629,4.262-.507,3.553-7.29-1-6.629m38.342,0c-4.143.6-3.446,7.158,1,6.629,4.262-.507,3.553-7.29-1-6.629M1.755,30.368c-.2,1.687.149,3.742,0,5.469H7.381L6.021,30.37c.06-.4,1.175-.38,1.513-.577l1.512,5.683a.936.936,0,0,0,.779.367c2,.184,4.306-.129,6.338-.027a.84.84,0,0,0-.184-1.647c-1.194-.139-3.741.341-4.635-.366-.848-.671-.942-3.817-1.692-5.08a4.3,4.3,0,0,0-7.9,1.646M50.1,35.838V30.368c0-2.491-3.158-4.137-5.42-3.544-3.386.887-2.738,3.944-3.7,6.3-.685,1.684-3.61.866-5.107,1.04a.84.84,0,0,0-.184,1.647c2.033-.1,4.338.211,6.338.027a.936.936,0,0,0,.779-.367l1.512-5.683c.338.2,1.452.181,1.513.577l-1.36,5.468Zm-25.006-5H21.76v5h3.334Zm5,0H26.761v5h3.334ZM2.172,37.5c1.381,3.6,5.419,2.134,8.274,2.509a2.66,2.66,0,0,1,2.146,2.23c.219,2.029-.324,4.832.024,6.748a1.252,1.252,0,0,0,2.466-.089c-.168-2.478.27-5.343-.02-7.775-.189-1.586-1.9-3.623-3.566-3.623Zm34.591,0H15.091c.231.4.573.716.813,1.115.2.324.54,1.336.8,1.387l18.345,0a.335.335,0,0,0,.308-.109c.13-.158.41-.978.593-1.282.24-.4.582-.712.813-1.115m12.92,0H40.358a4.844,4.844,0,0,0-2.555,1.4c-1.941,2.245-.683,7.168-1.03,9.994a1.252,1.252,0,0,0,2.466.089c.348-1.915-.2-4.719.024-6.748a2.659,2.659,0,0,1,2.145-2.23c2.865-.376,6.882,1.087,8.274-2.509M10.924,43.339c.075-.418.015-1.667-.573-1.667h-8.6v1.667Zm12.5-1.667H16.758v7.553c0,.145-.278.546-.208.781h6.877Zm3.334,0H25.094v8.334h1.667Zm8.335,0H28.428v8.334H35.3c.07-.235-.208-.636-.208-.781Zm15,0H41.5c-.588,0-.648,1.249-.573,1.667H50.1ZM6.756,45.006H5.089v5H6.756Zm4.168,0h-2.5v5h2.709c.07-.235-.209-.636-.209-.781Zm32.508,0h-2.5v4.219c0,.145-.278.546-.208.781h2.709Zm3.334,0H45.1v5h1.667Z" transform="translate(0)" fill="#010101"/>
          <path id="Path_990234" data-name="Path 990234" d="M62.026,54.472H53.691V47.127c0-1.162-1.147-2.337-1.925-3.076-3.531-3.356-7.578-6.346-11.1-9.739-1.061-1.5.784-3.113,2.341-1.924,2.807,2.145,6.6,7.03,9.849,7.967,1.012.291,2.068.3,3.081.57l-.578,7.138,2.46,2.547,2.535-2.547-.578-7.138c.985-.271,2.013-.275,3-.547,3.5-.963,6.993-5.9,9.989-8.035,1.562-1.115,3.337.533,2.283,1.97-3.515,3.4-7.567,6.383-11.1,9.739-.709.674-1.925,1.927-1.925,2.972Z" transform="translate(-31.932 -25.302)" fill="#fc816d"/>
          <path id="Path_990235" data-name="Path 990235" d="M23.411,7.987v8.334l-4.27-3.908a3.305,3.305,0,0,0-5.5.86c-1.207,3.107,2.391,4.477,4.038,6.382H8.408V7.987Z" transform="translate(-6.653 -6.32)" fill="#e4e8eb"/>
          <path id="Path_990236" data-name="Path 990236" d="M195.795,7.987V19.655h-9.273c.888-.98,2.083-1.748,3.023-2.655,3.336-3.219-.706-7.725-4.427-4.635-.321.267-.587.732-.993.831V7.987Zm-1.667,1.667H192.46v1.667h1.667Zm0,3.334H192.46v1.667h1.667Zm0,3.334h-3.334v1.667h3.334Z" transform="translate(-145.695 -6.32)" fill="#e4e8eb"/>
          <path id="Path_990237" data-name="Path 990237" d="M8.167,131.551a4.3,4.3,0,0,1,7.9-1.646c.75,1.263.844,4.409,1.692,5.08.894.707,3.44.228,4.635.367A.84.84,0,0,1,22.575,137c-2.033-.1-4.338.211-6.338.027a.937.937,0,0,1-.779-.367l-1.512-5.683c-.338.2-1.452.181-1.513.577l1.36,5.468H8.167c.149-1.727-.2-3.782,0-5.469" transform="translate(-6.412 -101.183)" fill="#f9d56f"/>
          <path id="Path_990238" data-name="Path 990238" d="M183.1,137.073h-5.626l1.36-5.468c-.061-.4-1.175-.38-1.513-.577l-1.512,5.683a.937.937,0,0,1-.779.367c-2,.184-4.306-.129-6.338-.027a.84.84,0,0,1,.184-1.647c1.5-.174,4.422.644,5.107-1.04.959-2.361.311-5.417,3.7-6.3,2.262-.593,5.42,1.053,5.42,3.544Z" transform="translate(-132.996 -101.235)" fill="#fad56f"/>
          <path id="Path_990239" data-name="Path 990239" d="M108.1,27.959c5.314-.616,6.474,7.084,1.507,8.175-5.8,1.274-7.054-7.531-1.507-8.175" transform="translate(-82.718 -22.096)" fill="#eeceb2"/>
          <path id="Path_990240" data-name="Path 990240" d="M10.4,179.692H19.73c1.669,0,3.376,2.037,3.566,3.623.29,2.432-.148,5.3.02,7.775a1.252,1.252,0,0,1-2.466.089c-.348-1.915.195-4.719-.024-6.748a2.66,2.66,0,0,0-2.145-2.23c-2.855-.375-6.894,1.09-8.274-2.509" transform="translate(-8.233 -142.187)" fill="#828e9a"/>
          <path id="Path_990241" data-name="Path 990241" d="M188.771,179.692c-1.393,3.6-5.409,2.133-8.274,2.509a2.66,2.66,0,0,0-2.145,2.23c-.219,2.029.324,4.832-.024,6.748a1.252,1.252,0,0,1-2.466-.089c.347-2.826-.91-7.749,1.03-9.994a4.844,4.844,0,0,1,2.555-1.4Z" transform="translate(-139.088 -142.187)" fill="#828e9a"/>
          <path id="Path_990242" data-name="Path 990242" d="M93.977,179.692c-.231.4-.573.716-.813,1.115-.183.3-.462,1.124-.593,1.282a.334.334,0,0,1-.308.109l-18.345,0c-.261-.051-.605-1.063-.8-1.387-.24-.4-.582-.712-.813-1.115Z" transform="translate(-57.214 -142.187)" fill="#cd9d75"/>
          <path id="Path_990243" data-name="Path 990243" d="M19.321,87.807c4.556-.662,5.266,6.122,1,6.629-4.45.529-5.146-6.027-1-6.629" transform="translate(-13.111 -69.444)" fill="#edcdb2"/>
          <path id="Path_990244" data-name="Path 990244" d="M203.025,87.807c4.556-.662,5.266,6.122,1,6.629-4.45.529-5.146-6.027-1-6.629" transform="translate(-158.473 -69.444)" fill="#edcdb2"/>
          <rect id="Rectangle_405903" data-name="Rectangle 405903" width="3.334" height="5.001" transform="translate(21.76 30.837)" fill="#828e9a"/>
          <rect id="Rectangle_405904" data-name="Rectangle 405904" width="3.334" height="5.001" transform="translate(26.761 30.837)" fill="#828e9a"/>
          <path id="Path_990245" data-name="Path 990245" d="M17.577,201.325H8.408v-1.667H17c.588,0,.648,1.249.573,1.667" transform="translate(-6.653 -157.986)" fill="#cd9d75"/>
          <path id="Path_990246" data-name="Path 990246" d="M205.178,199.657v1.667H196.01c-.075-.418-.015-1.667.573-1.667Z" transform="translate(-155.079 -157.985)" fill="#cd9d75"/>
          <rect id="Rectangle_405905" data-name="Rectangle 405905" width="1.667" height="8.334" transform="translate(25.094 41.672)" fill="#b17847"/>
          <rect id="Rectangle_405906" data-name="Rectangle 405906" width="1.667" height="5.001" transform="translate(5.089 45.006)" fill="#b17847"/>
          <rect id="Rectangle_405907" data-name="Rectangle 405907" width="1.667" height="5.001" transform="translate(45.098 45.006)" fill="#b17847"/>
          <path id="Path_990247" data-name="Path 990247" d="M121.372,75.867l.521,6.2-.872.88-.8-.88.521-6.2Z" transform="translate(-95.132 -60.033)" fill="#dee2e5"/>
          <rect id="Rectangle_405908" data-name="Rectangle 405908" width="3.334" height="1.667" transform="translate(45.098 10.001)"/>
          <rect id="Rectangle_405909" data-name="Rectangle 405909" width="1.667" height="1.667" transform="translate(46.765 3.334)"/>
          <rect id="Rectangle_405910" data-name="Rectangle 405910" width="1.667" height="1.667" transform="translate(46.765 6.668)"/>
        </g>
      </g>
    </g>
  </g>
</svg>
