<svg xmlns="http://www.w3.org/2000/svg" xmlns:xlink="http://www.w3.org/1999/xlink" width="108" height="108" viewBox="0 0 108 108">
  <defs>
    <filter id="Fondo" x="0" y="0" width="108" height="108" filterUnits="userSpaceOnUse">
      <feOffset dy="3" input="SourceAlpha"/>
      <feGaussianBlur stdDeviation="3" result="blur"/>
      <feFlood flood-opacity="0.161"/>
      <feComposite operator="in" in2="blur"/>
      <feComposite in="SourceGraphic"/>
    </filter>
  </defs>
  <g id="Group_1157116" data-name="Group 1157116" transform="translate(8532.382 -1478)">
    <g id="Icono" transform="translate(-8858.102 789)">
      <g transform="matrix(1, 0, 0, 1, 325.72, 689)" filter="url(#Fondo)">
        <g id="Fondo-2" data-name="Fondo" transform="translate(9 6)" fill="#3cddca" stroke="#1f796e" stroke-width="3">
          <circle cx="45" cy="45" r="45" stroke="none"/>
          <circle cx="45" cy="45" r="43.5" fill="none"/>
        </g>
      </g>
      <g id="controlar" transform="translate(349.777 708.057)">
        <g id="Group_1157013" data-name="Group 1157013" transform="translate(2 2)">
          <g id="Group_1156988" data-name="Group 1156988" transform="translate(4 48.885)">
            <path id="Path_991059" data-name="Path 991059" d="M6,55H18v7H6Z" transform="translate(-6 -55)" fill="#969faa"/>
          </g>
          <g id="Group_1156989" data-name="Group 1156989" transform="translate(39.885 48.885)">
            <path id="Path_991060" data-name="Path 991060" d="M46,55H58v7H46Z" transform="translate(-46 -55)" fill="#969faa"/>
          </g>
          <g id="Group_1156990" data-name="Group 1156990" transform="translate(4 39.885)">
            <path id="Path_991061" data-name="Path 991061" d="M18,51v4H6V46a5,5,0,0,0,5,5Z" transform="translate(-6 -46)" fill="#b4dd7f"/>
          </g>
          <g id="Group_1156991" data-name="Group 1156991" transform="translate(8.563 30.333)">
            <path id="Path_991062" data-name="Path 991062" d="M11.28,35.05a5.425,5.425,0,0,1,.72.19,8.023,8.023,0,0,1,5.67,6.81L18,45H12V37A3,3,0,0,0,11.28,35.05Z" transform="translate(-11.28 -35.05)" fill="#b4dd7f"/>
          </g>
          <g id="Group_1156992" data-name="Group 1156992" transform="translate(4 29.47)">
            <path id="Path_991063" data-name="Path 991063" d="M8.4,34.06A3,3,0,0,1,12,37v5H6V37.12a3.116,3.116,0,0,1,2-2.95A2.619,2.619,0,0,1,8.4,34.06Z" transform="translate(-6 -34.003)" fill="#b4dd7f"/>
          </g>
          <g id="Group_1156993" data-name="Group 1156993" transform="translate(39.885 39.885)">
            <path id="Path_991064" data-name="Path 991064" d="M58,46v9H46V51h7A5,5,0,0,0,58,46Z" transform="translate(-46 -46)" fill="#ff826e"/>
          </g>
          <g id="Group_1156994" data-name="Group 1156994" transform="translate(40.602 30.333)">
            <path id="Path_991065" data-name="Path 991065" d="M52,35.24a5.424,5.424,0,0,1,.72-.19A3,3,0,0,0,52,37v8H46l.33-2.95A8.023,8.023,0,0,1,52,35.24Z" transform="translate(-46 -35.05)" fill="#ff826e"/>
          </g>
          <g id="Group_1156995" data-name="Group 1156995" transform="translate(45.885 29.47)">
            <path id="Path_991066" data-name="Path 991066" d="M56,34.17a3.116,3.116,0,0,1,2,2.95V42H52V37a3,3,0,0,1,3.6-2.94,2.619,2.619,0,0,1,.4.11Z" transform="translate(-52 -34.003)" fill="#ff826e"/>
          </g>
          <g id="Group_1156996" data-name="Group 1156996" transform="translate(16.943 20.179)">
            <path id="Path_991067" data-name="Path 991067" d="M35,31l.85-6.79,1.75.44a7.058,7.058,0,0,1,2.55,1.21,7.276,7.276,0,0,1,2.1,2.52A7.054,7.054,0,0,1,43,31.56V39.2l-3.22-3.22-2.29,1.36a11.91,11.91,0,0,0-1.84-.77L35,34H29l-.65,2.57a11.91,11.91,0,0,0-1.84.77l-2.29-1.36L21,39.2V31.56a7.147,7.147,0,0,1,2.85-5.7,7.059,7.059,0,0,1,2.55-1.21l1.75-.44L29,31l3-4Z" transform="translate(-21 -24.21)" fill="#75b1f2"/>
          </g>
          <g id="Group_1156997" data-name="Group 1156997" transform="translate(27.801 20.292)">
            <path id="Path_991068" data-name="Path 991068" d="M35.85,24.21,35,31l-3-4,3-3Z" transform="translate(-32 -24)" fill="#5d9cec"/>
          </g>
          <g id="Group_1156998" data-name="Group 1156998" transform="translate(24.234 20.292)">
            <path id="Path_991069" data-name="Path 991069" d="M32,27l-3,4-.85-6.79L29,24Z" transform="translate(-28.15 -24)" fill="#5d9cec"/>
          </g>
          <g id="Group_1156999" data-name="Group 1156999" transform="translate(15.923 44.515)">
            <path id="Path_991070" data-name="Path 991070" d="M43.43,51.65a11.91,11.91,0,0,1-.77,1.84l1.36,2.29-4.24,4.24-2.29-1.36a11.91,11.91,0,0,1-1.84.77L35,62H29l-.65-2.57a11.91,11.91,0,0,1-1.84-.77l-2.29,1.36-4.24-4.24,1.36-2.29a11.91,11.91,0,0,1-.77-1.84l.04-.65H23a2.939,2.939,0,0,0,1.44-.37,8.007,8.007,0,0,0,15.12,0A2.939,2.939,0,0,0,41,51h2.64Z" transform="translate(-19.98 -50.63)" fill="#ffc729"/>
          </g>
          <g id="Group_1157000" data-name="Group 1157000" transform="translate(15.923 29.292)">
            <path id="Path_991071" data-name="Path 991071" d="M42.66,42.51a11.91,11.91,0,0,1,.77,1.84l.24.65H41a2.939,2.939,0,0,0-1.44.37,8.007,8.007,0,0,0-15.12,0A2.939,2.939,0,0,0,23,45H20.56l.01-.65a11.909,11.909,0,0,1,.77-1.84l-1.36-2.29L21,39.2l3.22-3.22,2.29,1.36a11.91,11.91,0,0,1,1.84-.77L29,34h6l.65,2.57a11.91,11.91,0,0,1,1.84.77l2.29-1.36L43,39.2l1.02,1.02Z" transform="translate(-19.98 -34)" fill="#ffc729"/>
          </g>
          <g id="Group_1157001" data-name="Group 1157001" transform="translate(20.383 33.885)">
            <path id="Path_991072" data-name="Path 991072" d="M36,48a4,4,0,1,0-4,4A4,4,0,0,0,36,48Zm2,0a2.989,2.989,0,0,0,1.56,2.63,8.007,8.007,0,0,1-15.12,0,3,3,0,0,0,.68-4.75,3.1,3.1,0,0,0-.68-.51,8.007,8.007,0,0,1,15.12,0,3.1,3.1,0,0,0-.68.51A2.993,2.993,0,0,0,38,48Z" transform="translate(-24.44 -40)" fill="#fcd770"/>
          </g>
          <g id="Group_1157002" data-name="Group 1157002" transform="translate(0 11.784)">
            <path id="Path_991073" data-name="Path 991073" d="M16,15a2.006,2.006,0,0,1,2,2,4.025,4.025,0,0,1-1.17,2.83A4.066,4.066,0,0,1,14,21H12.46a3,3,0,0,0-2.94,2.41L8,31l-.44-.15A8.133,8.133,0,0,1,10.14,15Z" transform="translate(-2 -15)" fill="#b27946"/>
          </g>
          <g id="Group_1157003" data-name="Group 1157003" transform="translate(39.885 11.311)">
            <path id="Path_991074" data-name="Path 991074" d="M59.12,42.4,58,43.33V37.12a3.116,3.116,0,0,0-2-2.95V31l-1.52-7.59A3,3,0,0,0,51.54,21H50a4.007,4.007,0,0,1-4-4,2.015,2.015,0,0,1,2-2h6a8,8,0,0,1,8,8V36.25A7.982,7.982,0,0,1,59.12,42.4Z" transform="translate(-46 -15)" fill="#b27946"/>
          </g>
          <g id="Group_1157004" data-name="Group 1157004" transform="translate(18.943)">
            <path id="Path_991075" data-name="Path 991075" d="M41,10v.23a5.583,5.583,0,0,1-.93,3.08A1.97,1.97,0,0,0,39,13H37v-.01h-.17a6.835,6.835,0,0,1-4.83-2,6.835,6.835,0,0,1-4.83,2H27V13H25a1.97,1.97,0,0,0-1.07.31A5.583,5.583,0,0,1,23,10.23a7.788,7.788,0,0,1,2.28-5.51l.63-.63A7.138,7.138,0,0,1,37.08,5.47L38,7a3,3,0,0,1,3,3Z" transform="translate(-23 -2)" fill="#656d78"/>
          </g>
          <g id="Group_1157005" data-name="Group 1157005" transform="translate(32.428 10.192)">
            <path id="Path_991076" data-name="Path 991076" d="M40.41,13.59A1.955,1.955,0,0,1,41,15a2.006,2.006,0,0,1-2,2H37V13h2a1.97,1.97,0,0,1,1.07.31A1.809,1.809,0,0,1,40.41,13.59Z" transform="translate(-37 -13)" fill="#f0d0b4"/>
          </g>
          <g id="Group_1157006" data-name="Group 1157006" transform="translate(22.943 8.99)">
            <path id="Path_991077" data-name="Path 991077" d="M37,13v4a5,5,0,0,1-10,0V12.99h.17a6.835,6.835,0,0,0,4.83-2,6.835,6.835,0,0,0,4.83,2H37Z" transform="translate(-27 -10.99)" fill="#f0d0b4"/>
          </g>
          <g id="Group_1157007" data-name="Group 1157007" transform="translate(24.943 17.942)">
            <path id="Path_991078" data-name="Path 991078" d="M29.65,21.41a5.051,5.051,0,0,0,4.7,0L35,24l-3,3-3-3Z" transform="translate(-29 -21.41)" fill="#f0d0b4"/>
          </g>
          <g id="Group_1157008" data-name="Group 1157008" transform="translate(19.457 10.192)">
            <path id="Path_991079" data-name="Path 991079" d="M27,16.99V17H25a2.015,2.015,0,0,1-2-2,2,2,0,0,1,.93-1.69A1.97,1.97,0,0,1,25,13h2Z" transform="translate(-23 -13)" fill="#f0d0b4"/>
          </g>
          <g id="Group_1157009" data-name="Group 1157009" transform="translate(6 16.695)">
            <path id="Path_991080" data-name="Path 991080" d="M12,32v3.24a5.424,5.424,0,0,0-.72-.19,3.01,3.01,0,0,0-2.88-.99,2.619,2.619,0,0,0-.4.11V31l1.52-7.59A3,3,0,0,1,12.46,21H14a3.956,3.956,0,0,0,2.15-.63L18,25l-1,1v2a4,4,0,0,1-4,4Z" transform="translate(-8 -20.37)" fill="#f0d0b4"/>
          </g>
          <g id="Group_1157010" data-name="Group 1157010" transform="translate(4 36.773)">
            <path id="Path_991081" data-name="Path 991081" d="M12,42v3H23a2.939,2.939,0,0,1,1.44.37,3.1,3.1,0,0,1,.68.51,3,3,0,0,1-.68,4.75A2.939,2.939,0,0,1,23,51H11a5,5,0,0,1-5-5V42Z" transform="translate(-6 -42)" fill="#f0d0b4"/>
          </g>
          <g id="Group_1157011" data-name="Group 1157011" transform="translate(31.885 36.773)">
            <path id="Path_991082" data-name="Path 991082" d="M58,45v1a5,5,0,0,1-5,5H41a2.939,2.939,0,0,1-1.44-.37,3,3,0,0,1-.68-4.75,3.1,3.1,0,0,1,.68-.51A2.939,2.939,0,0,1,41,45H52V42h6v3Z" transform="translate(-38 -42)" fill="#f0d0b4"/>
          </g>
          <g id="Group_1157012" data-name="Group 1157012" transform="translate(39.885 16.695)">
            <path id="Path_991083" data-name="Path 991083" d="M55.6,34.06a3.01,3.01,0,0,0-2.88.99,5.425,5.425,0,0,0-.72.19V32H51a4,4,0,0,1-4-4V26l-1-1,1.85-4.63A3.956,3.956,0,0,0,50,21h1.54a3,3,0,0,1,2.94,2.41L56,31v3.17a2.619,2.619,0,0,0-.4-.11Z" transform="translate(-46 -20.37)" fill="#f0d0b4"/>
          </g>
        </g>
        <g id="Group_1157014" data-name="Group 1157014" transform="translate(1 1)">
          <path id="Path_991084" data-name="Path 991084" d="M32,53a5,5,0,1,0-5-5A5.006,5.006,0,0,0,32,53Zm0-8a3,3,0,1,1-3,3A3,3,0,0,1,32,45Z" transform="translate(-3.057 -4.324)"/>
          <path id="Path_991085" data-name="Path 991085" d="M50.482,13.137h-5.6a2.8,2.8,0,0,0-2.8,2.8,4.64,4.64,0,0,0,1.54,3.44l-1.7,4.254,1.1,1.1v1.481a4.673,4.673,0,0,0,4.668,4.668V32.3a8.41,8.41,0,0,0-5.29,6.919l-.214,1.927h-.69a11.809,11.809,0,0,0-.53-1.35l1.381-2.324-1.192-1.193V29.533a7.62,7.62,0,0,0-3.033-6.067,7.541,7.541,0,0,0-2.711-1.29L33.514,21.7l-.307-1.229a5.6,5.6,0,0,0,2.253-3.6h1.019a2.8,2.8,0,0,0,2.8-2.8,2.773,2.773,0,0,0-.634-1.752,6.094,6.094,0,0,0,.634-2.7V9.4A3.74,3.74,0,0,0,36.1,5.709l-.612-1.02A7.64,7.64,0,0,0,28.969,1,7.549,7.549,0,0,0,23.6,3.226l-.584.584a8.159,8.159,0,0,0-2.406,5.809,6.1,6.1,0,0,0,.634,2.7,2.771,2.771,0,0,0-.634,1.752,2.8,2.8,0,0,0,2.8,2.8h1.019a5.6,5.6,0,0,0,2.253,3.6L26.371,21.7l-1.888.472a7.522,7.522,0,0,0-2.71,1.29,7.618,7.618,0,0,0-3.034,6.067V36.28l-1.192,1.192L18.928,39.8a11.809,11.809,0,0,0-.53,1.35h-.69l-.214-1.927A8.41,8.41,0,0,0,12.2,32.3V30.876a4.673,4.673,0,0,0,4.668-4.668V24.727l1.1-1.1-1.7-4.254a4.64,4.64,0,0,0,1.54-3.44,2.8,2.8,0,0,0-2.8-2.8H9.53A8.526,8.526,0,0,0,6.6,29.672v1.713a3.864,3.864,0,0,0-1.867,3.337V58.885H17.805V52.548l4.728,4.728L24.857,55.9c.3.137.6.262.893.373l.667,2.616H33.47l.666-2.616c.3-.111.6-.236.893-.373l2.324,1.381,4.728-4.728v6.337H55.15V40.961l.71-.593a8.379,8.379,0,0,0,3.024-6.455V21.54a8.412,8.412,0,0,0-8.4-8.4Zm-5.6,13.071V23.954l-.771-.772,1.138-2.846a4.6,4.6,0,0,0,1.5.27h1.439a1.873,1.873,0,0,1,1.831,1.5l1.4,6.994v1.785a3.715,3.715,0,0,0-1.867.512V29.009H47.681a2.8,2.8,0,0,1-2.8-2.8Zm-.633,13.216a6.54,6.54,0,0,1,3.463-5.075c-.007.088-.029.173-.029.261v6.535H44.056ZM34.331,23.833l.617.154a5.67,5.67,0,0,1,2.043.973,5.744,5.744,0,0,1,2.287,4.574v4.879l-1.927-1.927-2.324,1.381c-.3-.137-.6-.262-.893-.373l-.667-2.617h-.018Zm-4.389.121-1.767-1.767.219-.877a5.5,5.5,0,0,0,3.1,0l.219.877Zm2.47.17L32.1,26.6l-.928-1.238Zm-3.7,1.238L27.782,26.6l-.31-2.476Zm1.232,1.469,3.034,4.045H26.908ZM36.478,15h-.934V13.137h.934a.934.934,0,1,1,0,1.867ZM24.341,15h-.934a.934.934,0,1,1,0-1.867h.934Zm1.094-3.741H24.341v.007h-.934a2.793,2.793,0,0,0-.57.059,4.255,4.255,0,0,1-.364-1.71,6.306,6.306,0,0,1,1.859-4.489l.584-.584a5.7,5.7,0,0,1,4.053-1.679,5.764,5.764,0,0,1,4.916,2.782l1.131,1.886h.528A1.869,1.869,0,0,1,37.412,9.4v.216a4.247,4.247,0,0,1-.365,1.71,2.783,2.783,0,0,0-.569-.059h-.934v-.007H34.45A5.4,5.4,0,0,1,30.6,9.67l-.66-.661-.66.661a5.408,5.408,0,0,1-3.847,1.594Zm.773,4.668V13.09a7.231,7.231,0,0,0,3.735-1.514,7.239,7.239,0,0,0,3.735,1.514v2.841a3.735,3.735,0,0,1-7.469,0Zm-5.6,13.6a5.743,5.743,0,0,1,2.287-4.573,5.678,5.678,0,0,1,2.043-.973l.617-.154.88,7.042h-.018l-.666,2.616c-.3.111-.6.236-.893.373l-2.324-1.381-1.928,1.927Zm-.713,8.232,2.934-2.934,1.956,1.163.46-.238a10.285,10.285,0,0,1,1.573-.658l.493-.157.557-2.2h4.15l.558,2.2.493.157a10.285,10.285,0,0,1,1.573.658l.46.238,1.956-1.163,2.934,2.934-1.163,1.956.238.46c.163.316.3.638.433.964H38.345a3.694,3.694,0,0,0-.831.1,8.4,8.4,0,0,0-15.143,0,3.694,3.694,0,0,0-.831-.1H20.386a10.2,10.2,0,0,1,.433-.964l.238-.46Zm4.143,4.357a6.507,6.507,0,0,1,11.814,0,3.69,3.69,0,0,0,0,5.517,6.508,6.508,0,0,1-11.814,0,3.689,3.689,0,0,0,0-5.516Zm-8.4-2.7.191,1.722H12.2V34.611c0-.089-.022-.174-.029-.261a6.54,6.54,0,0,1,3.463,5.075ZM15,23.954v2.254a2.8,2.8,0,0,1-2.8,2.8H10.336V31.4a3.717,3.717,0,0,0-1.867-.512V29.1l1.4-7a1.873,1.873,0,0,1,1.831-1.5h1.439a4.6,4.6,0,0,0,1.5-.27l1.138,2.846ZM2.867,21.667A6.67,6.67,0,0,1,9.53,15H15a.935.935,0,0,1,.934.934,2.8,2.8,0,0,1-2.8,2.8H11.7a3.745,3.745,0,0,0-3.662,3l-1.2,6.018a6.652,6.652,0,0,1-3.966-6.092ZM6.6,34.721a1.953,1.953,0,0,1,1.487-1.94,2.06,2.06,0,0,1,.383-.037,1.84,1.84,0,0,1,1.183.426,1.866,1.866,0,0,1,.682,1.442v3.735H6.6Zm0,7.359V40.212h3.735v1.481L8.743,43.287l1.32,1.32,1.594-1.594H21.54a1.867,1.867,0,1,1,0,3.735h-11.2A3.738,3.738,0,0,1,6.6,43.013Zm9.336,14.938h-2.8v-.547a2.239,2.239,0,0,1,.66-1.594l-1.32-1.32a4.093,4.093,0,0,0-1.207,2.914v.547H6.6V52.35h9.336Zm0-6.535H6.6V47.177a5.573,5.573,0,0,0,3.735,1.438h5.6Zm1.867,1.372V48.615H18.4a11.808,11.808,0,0,0,.53,1.35ZM37.058,54.93,35.1,53.767l-.46.238a10.285,10.285,0,0,1-1.573.658l-.493.157-.557,2.2h-4.15l-.558-2.2-.493-.157A10.285,10.285,0,0,1,25.244,54l-.46-.238L22.827,54.93,19.893,52l1.163-1.956-.238-.46a10.436,10.436,0,0,1-.432-.964H21.54a3.694,3.694,0,0,0,.831-.1,8.4,8.4,0,0,0,15.143,0,3.7,3.7,0,0,0,.831.1H39.5c-.128.322-.268.644-.433.964l-.238.46L39.992,52Zm3.9-4.965a12.023,12.023,0,0,0,.53-1.35h.592v3.239Zm12.326,7.053H48.615v-.547a4.093,4.093,0,0,0-1.207-2.914l-1.32,1.32a2.24,2.24,0,0,1,.66,1.594v.547h-2.8V52.35h9.336Zm0-6.535H43.947V48.615h5.6a5.573,5.573,0,0,0,3.735-1.438Zm0-8.4v.934a3.738,3.738,0,0,1-3.735,3.735h-11.2a1.867,1.867,0,0,1,0-3.735h9.883l1.594,1.594,1.32-1.32-1.594-1.594V40.212h3.735Zm0-3.735H49.549V34.611a1.871,1.871,0,0,1,2.247-1.83,1.953,1.953,0,0,1,1.487,1.94Zm3.735-4.432a6.51,6.51,0,0,1-1.867,4.569V34.721a3.865,3.865,0,0,0-1.867-3.337V29.009l-1.435-7.267a3.744,3.744,0,0,0-3.662-3H46.748a2.8,2.8,0,0,1-2.8-2.8A.935.935,0,0,1,44.881,15h5.6a6.543,6.543,0,0,1,6.535,6.535Z" transform="translate(-1 -1)"/>
        </g>
      </g>
    </g>
  </g>
</svg>
