<svg xmlns="http://www.w3.org/2000/svg" xmlns:xlink="http://www.w3.org/1999/xlink" width="108" height="108" viewBox="0 0 108 108">
  <defs>
    <filter id="Fondo" x="0" y="0" width="108" height="108" filterUnits="userSpaceOnUse">
      <feOffset dy="3" input="SourceAlpha"/>
      <feGaussianBlur stdDeviation="3" result="blur"/>
      <feFlood flood-opacity="0.161"/>
      <feComposite operator="in" in2="blur"/>
      <feComposite in="SourceGraphic"/>
    </filter>
    <clipPath id="clip-path">
      <rect id="Rectangle_405856" data-name="Rectangle 405856" width="75.085" height="65.565" fill="none"/>
    </clipPath>
  </defs>
  <g id="Group_1157115" data-name="Group 1157115" transform="translate(8532.382 -1478)">
    <g id="Icono" transform="translate(-8858.102 789)">
      <g transform="matrix(1, 0, 0, 1, 325.72, 689)" filter="url(#Fondo)">
        <g id="Fondo-2" data-name="Fondo" transform="translate(9 6)" fill="#3cddca" stroke="#1f796e" stroke-width="3">
          <circle cx="45" cy="45" r="45" stroke="none"/>
          <circle cx="45" cy="45" r="43.5" fill="none"/>
        </g>
      </g>
      <g id="Group_1145596" data-name="Group 1145596" transform="translate(342.177 704.435)">
        <path id="Path_979881" data-name="Path 979881" d="M0,0V.152L.151,0Z" transform="translate(0 0)" fill="#fefefe"/>
        <path id="Path_979882" data-name="Path 979882" d="M0,273.652H.151L0,273.5Z" transform="translate(0 -207.915)" fill="#fefefe"/>
        <path id="Path_979883" data-name="Path 979883" d="M311.5,273.652h.152V273.5Z" transform="translate(-236.86 -207.915)" fill="#fefefe"/>
        <g id="Group_1145595" data-name="Group 1145595" transform="translate(0 0.172)">
          <g id="Group_1145594" data-name="Group 1145594" clip-path="url(#clip-path)">
            <path id="Path_979884" data-name="Path 979884" d="M39.27,126.96a1.85,1.85,0,0,0,1.138.6c.517,0,2.161-.752,2.93-.9,3.09-.608,11.269-.583,14.282.218,11.2,2.977,13.067,18.4,2.929,24.041-3.5,1.95-6.592,1.606-10.449,1.766l-2.8,2.641c-.035-.779.186-1.891-.485-2.448-.6-.495-1.3-.223-1.969-.306-8.094-1.007-13.581-8.438-11.473-16.487.22-.84.988-2,.605-2.811a5.219,5.219,0,0,0-.452-.565,7.767,7.767,0,0,1,1.557-2.394c1.085,1,2.811-.666,1.8-1.8a8.249,8.249,0,0,1,2.4-1.556m.568,9c-4.384.691-3.619,7.685,1.156,7.138,4.585-.525,3.835-7.925-1.156-7.138m9.581,0c-4.384.691-3.619,7.685,1.156,7.138,4.585-.525,3.835-7.925-1.156-7.138m9.581,0c-4.384.691-3.619,7.685,1.156,7.138,4.585-.525,3.835-7.925-1.156-7.138" transform="translate(-25.017 -96.101)" fill="#fdfdfd"/>
            <path id="Path_979885" data-name="Path 979885" d="M31.656,97.28c-.583-1.093.551-1.719,1.375-2.037,4.475-1.729,9.99-.646,14.709-.952a15.744,15.744,0,0,1,12.715-6.948c8.218-.411,16.243-.507,21.241,7.029A15.517,15.517,0,0,1,69.98,118.342c-.164,1.3.72,4.986-1.611,4.542-.885-.169-3.668-3.692-4.618-4.36l-4.231-.169a16.041,16.041,0,0,1-10.473,6.774c-1.856.279-3.675.066-5.541.208l-4.75,4.469c-2.248.514-1.457-3.324-1.592-4.521A15.559,15.559,0,0,1,23.4,105.846c.266-1.039.92-3.66,2.506-2.821a5.3,5.3,0,0,1,.452.565c.383.809-.385,1.971-.605,2.812-2.108,8.049,3.379,15.48,11.473,16.487.671.084,1.373-.188,1.969.306.671.557.45,1.669.486,2.448l2.8-2.642c3.857-.16,6.947.184,10.449-1.766,10.138-5.645,8.27-21.064-2.929-24.041-3.013-.8-11.192-.826-14.282-.218-.769.151-2.413.9-2.93.9a1.85,1.85,0,0,1-1.138-.6m29.1,18.789h3.892l2.813,2.633c.018-1.493-.278-2.532,1.513-2.738,2.612-.3,4.027-.382,6.383-1.76,10.123-5.921,7.816-21.391-3.583-24.045-2.68-.624-9.351-.488-12.282-.3-2.826.177-7.352,2.168-8.922,4.607a.507.507,0,0,0-.115.424c9.154,2.135,14.1,12.617,10.3,21.183" transform="translate(-17.404 -66.421)" fill="#030303"/>
            <path id="Path_979886" data-name="Path 979886" d="M74.478,58.326a12.506,12.506,0,0,1,8.568,2.139,11.473,11.473,0,0,1,1.763,1.589,1.238,1.238,0,0,1-1.234,1.841c-.449-.074-1.61-1.237-2.137-1.585a9.9,9.9,0,0,0-11.527.429c-.692.5-1.215,1.545-2.269,1.028-.872-.428-.806-1.325-.27-2.008,1.325-1.69,5-3.231,7.1-3.433" transform="translate(-50.909 -44.425)" fill="#030303"/>
            <path id="Path_979887" data-name="Path 979887" d="M167.434,29.437a12.455,12.455,0,0,1,8.136,2.091c.856.589,2.476,1.654,1.921,2.812-.849,1.771-2.417-.205-3.237-.779a9.878,9.878,0,0,0-11-.167c-.646.413-1.784,1.654-2.435,1.637a1.206,1.206,0,0,1-1.089-1.688,6.914,6.914,0,0,1,1.633-1.6,12.645,12.645,0,0,1,6.074-2.308" transform="translate(-121.348 -22.476)" fill="#030303"/>
            <path id="Path_979888" data-name="Path 979888" d="M185.24,54.2c-1.093,1.1-2.1-.494-3.11-.939a4.741,4.741,0,0,0-4.793.522c-.689.436-1.291,1.413-2.239.4-1.5-1.607,2.256-3.329,3.472-3.6a7.26,7.26,0,0,1,4.314.365c1.013.395,3.621,1.972,2.356,3.248" transform="translate(-132.824 -38.463)" fill="#040404"/>
            <path id="Path_979889" data-name="Path 979889" d="M86.756,79.337a7.283,7.283,0,0,1,5.537,1.581c.644.57,1.174,1.167.579,2.018-.851,1.215-1.88-.065-2.576-.5a4.762,4.762,0,0,0-5.4.193c-.3.188-.572.6-.864.692a1.184,1.184,0,0,1-1.386-1.863,6.95,6.95,0,0,1,4.108-2.118" transform="translate(-62.59 -60.412)" fill="#030303"/>
            <path id="Path_979890" data-name="Path 979890" d="M42.56,134.573c1.015,1.13-.712,2.8-1.8,1.8a2.438,2.438,0,0,1-.368-.9,1.27,1.27,0,0,1,2.165-.895" transform="translate(-30.703 -102.158)" fill="#070707"/>
            <path id="Path_979891" data-name="Path 979891" d="M52.6,166.63c4.991-.787,5.741,6.613,1.156,7.138-4.775.547-5.54-6.447-1.156-7.138m.356,2.389a1.2,1.2,0,0,0,.543,2.342,1.2,1.2,0,1,0-.543-2.342" transform="translate(-37.781 -126.767)" fill="#020303"/>
            <path id="Path_979892" data-name="Path 979892" d="M92.537,166.63c4.991-.787,5.741,6.613,1.156,7.138-4.775.547-5.54-6.447-1.156-7.138m.356,2.389a1.2,1.2,0,0,0,.543,2.342,1.2,1.2,0,1,0-.543-2.342" transform="translate(-68.136 -126.767)" fill="#020303"/>
            <path id="Path_979893" data-name="Path 979893" d="M132.473,166.63c4.991-.787,5.741,6.613,1.156,7.138-4.775.547-5.54-6.447-1.156-7.138m.356,2.389a1.2,1.2,0,0,0,.543,2.342,1.2,1.2,0,1,0-.543-2.342" transform="translate(-98.491 -126.767)" fill="#020303"/>
            <path id="Path_979894" data-name="Path 979894" d="M148.046,124.023c3.8-8.566-1.147-19.048-10.3-21.183a.507.507,0,0,1,.115-.424c1.571-2.44,6.1-4.43,8.922-4.607,2.932-.183,9.6-.319,12.282.3,11.4,2.654,13.706,18.125,3.583,24.045-2.356,1.378-3.77,1.46-6.383,1.76-1.791.206-1.5,1.245-1.513,2.738l-2.813-2.633Z" transform="translate(-104.69 -74.374)" fill="#fdcc68"/>
            <path id="Path_979895" data-name="Path 979895" d="M60.47,176.654A1.2,1.2,0,1,1,61.014,179a1.2,1.2,0,0,1-.543-2.342" transform="translate(-45.295 -134.401)" fill="#32d0ee"/>
            <path id="Path_979896" data-name="Path 979896" d="M100.406,176.654A1.2,1.2,0,1,1,100.95,179a1.2,1.2,0,0,1-.543-2.342" transform="translate(-75.649 -134.401)" fill="#32d0ee"/>
            <path id="Path_979897" data-name="Path 979897" d="M140.342,176.654a1.2,1.2,0,1,1,.543,2.342,1.2,1.2,0,0,1-.543-2.342" transform="translate(-106.004 -134.401)" fill="#32d0ee"/>
          </g>
        </g>
      </g>
    </g>
  </g>
</svg>
